<svg width="33" height="28" viewBox="0 0 33 28" fill="none" xmlns="http://www.w3.org/2000/svg">
<g clip-path="url(#clip0_1_20)">
<path d="M33.0003 17.6694C32.9444 17.8834 32.8912 18.0975 32.8325 18.3108C32.2318 20.4844 30.2976 21.9573 28.0292 21.9696C27.8704 21.9703 27.7116 21.9696 27.5127 21.9696V22.3379C27.5127 23.9546 27.5107 25.5713 27.5141 27.1881C27.5141 27.4985 27.5058 27.7972 27.1675 27.9479C26.8194 28.1035 26.6033 27.8867 26.3851 27.6692C24.5711 25.8583 22.7537 24.0516 20.9452 22.236C20.7587 22.0488 20.5778 21.9573 20.3037 21.9634C19.4447 21.9827 18.5857 21.9717 17.726 21.9703C14.8147 21.9669 12.6458 19.8016 12.6389 16.8937C12.6389 16.7774 12.6389 16.6611 12.6389 16.4972C12.1742 16.4972 11.7274 16.4855 11.2834 16.5069C11.1881 16.5117 11.0887 16.6266 11.0079 16.7072C9.53225 18.1739 8.06075 19.644 6.58442 21.11C6.47325 21.2201 6.34412 21.3399 6.20049 21.3853C5.80827 21.5113 5.48994 21.227 5.48856 20.7617C5.48442 19.4664 5.48718 18.1704 5.48718 16.8751C5.48718 16.7602 5.48718 16.6452 5.48718 16.5351C4.9762 16.4849 4.49352 16.4718 4.02397 16.3851C1.68793 15.9515 0.00582549 13.93 0.00237289 11.5713C-0.000389196 9.38678 0.000991846 7.20292 0.00237289 5.01836C0.00306341 2.25704 2.13125 0.0511549 4.89886 0.0250008C8.41085 -0.0087242 11.9228 -0.00597114 15.4348 0.0236243C18.2011 0.0470253 20.3451 2.24672 20.361 5.00185C20.3617 5.15946 20.361 5.31776 20.361 5.51323C20.5198 5.51323 20.6455 5.51323 20.7712 5.51323C23.295 5.51667 25.8196 5.48638 28.3427 5.53319C30.5814 5.57448 32.5791 7.38393 32.9326 9.59051C32.9458 9.67172 32.9775 9.75087 33.001 9.83071V17.6701L33.0003 17.6694ZM26.3899 26.0758C26.3899 25.6305 26.3899 25.2616 26.3899 24.8927C26.3899 23.7798 26.3865 22.6662 26.392 21.5532C26.3948 21.057 26.5826 20.8725 27.0729 20.8657C27.3843 20.8608 27.6957 20.8698 28.0071 20.8636C30.192 20.8209 31.8713 19.2001 31.8955 17.0589C31.921 14.8433 31.9224 12.6271 31.8955 10.4116C31.8692 8.27179 30.1526 6.61858 28.003 6.61651C24.5242 6.61307 21.0453 6.61101 17.5665 6.61789C15.5861 6.62202 13.9115 8.17544 13.7845 10.1425C13.7355 10.8996 13.7562 11.6615 13.7582 12.4213C13.7624 14.0911 13.7299 15.7622 13.7976 17.4292C13.8673 19.1416 15.4383 20.7149 17.1508 20.8161C18.3281 20.8856 19.511 20.8595 20.6918 20.8595C21.0039 20.8595 21.238 20.9545 21.4596 21.1774C22.9864 22.713 24.5235 24.2389 26.0585 25.7668C26.1462 25.8542 26.2387 25.9354 26.3913 26.0765L26.3899 26.0758ZM19.185 5.5208C19.2168 5.45335 19.2313 5.43476 19.2334 5.41549C19.4744 3.14835 17.737 1.16064 15.4535 1.14687C11.9318 1.12622 8.40947 1.1276 4.88781 1.14687C2.8052 1.15857 1.12999 2.82624 1.10513 4.90962C1.0789 7.13616 1.08442 9.36269 1.10375 11.5892C1.11756 13.2005 2.12987 14.6148 3.65592 15.1338C4.12202 15.2921 4.64129 15.3561 5.1364 15.3568C6.65761 15.3595 6.62585 15.3582 6.61066 16.8524C6.60306 17.6122 6.60859 18.3721 6.61066 19.1326C6.61066 19.2331 6.62309 19.3329 6.63345 19.485C6.75912 19.3666 6.84405 19.2902 6.92485 19.2097C8.0794 18.0596 9.24085 16.9164 10.3816 15.7532C10.6613 15.4683 10.952 15.3382 11.3483 15.3623C11.7709 15.3878 12.197 15.3678 12.6382 15.3678C12.6382 13.9376 12.6341 12.5583 12.641 11.1783C12.643 10.7193 12.6458 10.2567 12.6983 9.80181C12.9676 7.46446 14.9943 5.60339 17.3503 5.52355C17.9608 5.5029 18.5732 5.52011 19.1837 5.52011L19.185 5.5208Z" fill="white"/>
<path d="M22.8065 17.5893C20.8192 17.5893 18.8319 17.5893 16.8446 17.5893C16.7693 17.5893 16.694 17.5907 16.6188 17.5893C16.2017 17.5783 15.9338 17.3505 15.9421 17.016C15.9503 16.6904 16.2072 16.4674 16.6084 16.4667C20.755 16.464 24.9016 16.464 29.0475 16.4667C29.4493 16.4667 29.7021 16.6932 29.7055 17.0215C29.709 17.3608 29.4486 17.5865 29.0254 17.5872C26.9524 17.5907 24.8788 17.5886 22.8058 17.5886L22.8065 17.5893Z" fill="white"/>
<path d="M22.8121 10.9937C20.804 10.9937 18.7953 10.9937 16.7873 10.9937C16.6692 10.9937 16.5504 10.9985 16.433 10.9854C16.1534 10.9551 15.9372 10.7108 15.9407 10.441C15.9441 10.1843 16.1492 9.94336 16.4102 9.90482C16.5152 9.88899 16.6243 9.89725 16.732 9.89725C20.7916 9.89725 24.8512 9.89725 28.9107 9.89725C29.0074 9.89725 29.1048 9.89105 29.2008 9.90138C29.4949 9.93235 29.7166 10.1849 29.7055 10.4678C29.6945 10.7452 29.4825 10.9696 29.1911 10.9868C28.9446 11.0012 28.6974 10.9943 28.4502 10.9943C26.5706 10.9943 24.691 10.9943 22.8121 10.9943V10.9937Z" fill="white"/>
<path d="M22.8493 14.2904C20.8192 14.2904 18.7891 14.2904 16.7596 14.2904C16.2176 14.2904 15.9414 14.1019 15.9421 13.735C15.9428 13.3668 16.2196 13.1782 16.7589 13.1782C20.7978 13.1782 24.836 13.1782 28.8748 13.1782C28.939 13.1782 29.004 13.1768 29.0682 13.1782C29.4438 13.1892 29.6952 13.4026 29.7062 13.7192C29.718 14.0489 29.4694 14.2836 29.0682 14.287C28.0697 14.2953 27.0705 14.2904 26.0713 14.2904C24.9976 14.2904 23.9231 14.2904 22.8493 14.2904V14.2904Z" fill="white"/>
<path d="M9.05964 5.52057C7.18142 5.52057 5.30251 5.52126 3.42429 5.51989C3.00722 5.51989 2.7683 5.32648 2.7538 4.98992C2.74137 4.70085 2.92643 4.47028 3.21576 4.42968C3.33176 4.41316 3.45122 4.41522 3.5693 4.41522C7.24011 4.41522 10.9116 4.41522 14.5824 4.41522C14.6895 4.41522 14.7979 4.41316 14.9042 4.42555C15.2025 4.45996 15.3979 4.67263 15.4007 4.95757C15.4041 5.23288 15.2032 5.47033 14.9201 5.51369C14.8255 5.52815 14.7274 5.52126 14.6308 5.52195C12.7739 5.52195 10.9164 5.52195 9.05964 5.52195V5.52057Z" fill="white"/>
<path d="M7.42517 8.80085C6.06209 8.80085 4.69831 8.79947 3.33522 8.80222C3.06799 8.80222 2.84011 8.69417 2.7973 8.44157C2.76623 8.25781 2.83873 8.02792 2.93817 7.86205C2.99548 7.76638 3.1985 7.71545 3.33591 7.71476C6.06278 7.7065 8.78964 7.70719 11.5158 7.71063C11.8625 7.71063 12.1083 7.94877 12.1076 8.25436C12.1076 8.55995 11.8583 8.79878 11.5151 8.79947C10.152 8.8036 8.78826 8.80085 7.42517 8.80085V8.80085Z" fill="white"/>
<path d="M7.12894 12.0914C5.93779 12.0914 4.74664 12.0914 3.55549 12.0914C3.44846 12.0914 3.34005 12.0942 3.23371 12.0818C2.95405 12.0495 2.76554 11.8444 2.7538 11.5697C2.74137 11.2855 2.92919 11.0467 3.21161 10.9999C3.29517 10.9861 3.38286 10.9916 3.46849 10.9916C5.92605 10.9916 8.38293 10.9916 10.8405 10.9916C10.9047 10.9916 10.9696 10.9882 11.0338 10.995C11.3418 11.026 11.5462 11.249 11.5441 11.5491C11.5421 11.854 11.3453 12.0763 11.0242 12.0846C10.4345 12.0997 9.84407 12.0921 9.25367 12.0928C8.5452 12.0935 7.83741 12.0928 7.12894 12.0928V12.0914Z" fill="white"/>
</g>
<defs>
<clipPath id="clip0_1_20">
<rect width="33" height="28" fill="white"/>
</clipPath>
</defs>
</svg>
