<svg width="24" height="27" viewBox="0 0 24 27" fill="none" xmlns="http://www.w3.org/2000/svg">
<g clip-path="url(#clip0_1_33)">
<path d="M17.0164 0C17.4669 0.184517 17.6413 0.52045 17.6164 0.997235C17.5929 1.44303 17.6164 1.89024 17.6093 2.33674C17.6014 2.82832 17.2683 3.16495 16.8057 3.16143C16.3495 3.15862 16.0135 2.80789 16.0092 2.32336C16.005 1.89447 16.0292 1.46346 16.0028 1.03597C15.9737 0.552846 16.1466 0.207757 16.5907 0H17.0171H17.0164Z" fill="white"/>
<path d="M12.7715 16.9854C13.4555 17.5678 13.8911 18.2517 13.847 19.1616C13.8028 20.0764 13.2313 20.6828 12.5601 21.2779C13.1594 21.8589 13.7559 22.4089 14.3189 22.9913C15.1879 23.8914 15.1986 25.2774 14.3701 26.1978C13.4854 27.1803 11.9665 27.2831 10.9843 26.3788C10.1267 25.5894 9.31673 24.7492 8.48755 23.9308C7.97295 23.4231 7.4605 22.9125 6.91815 22.3744C6.72883 22.5709 6.55872 22.7596 6.3758 22.9357C5.40356 23.8674 3.97794 23.8893 2.99929 22.9618C2.21708 22.2209 1.45125 21.4617 0.70178 20.6884C-0.261921 19.6954 -0.227046 18.2904 0.772955 17.2924C2.09182 15.9762 3.41779 14.6663 4.74591 13.3599C6.52811 11.6069 7.88328 9.57937 8.73167 7.2377C9.01424 6.45667 9.20214 5.64184 9.42278 4.83969C9.44413 4.76081 9.41281 4.65165 9.37153 4.57418C8.93096 3.75724 8.91459 2.93677 9.40427 2.14589C9.89324 1.3557 10.6349 0.976811 11.5722 1.00921C12.2335 1.03174 12.7751 1.32401 13.2384 1.7839C16.1801 4.69954 19.126 7.61166 22.0698 10.5259C22.1637 10.6189 22.2562 10.7146 22.3402 10.8161C23.0655 11.695 23.0655 12.9577 22.3424 13.8289C21.6164 14.7029 20.3744 14.943 19.3537 14.4212C19.2263 14.3557 19.0498 14.3176 18.9132 14.3458C16.7281 14.8001 14.7117 15.6494 12.8719 16.9037C12.8505 16.9185 12.8313 16.9368 12.7715 16.9861V16.9854ZM10.373 16.8044C12.5246 14.9712 14.9765 13.7078 17.7018 12.9845C15.3815 10.6886 13.0854 8.41664 10.7765 6.13131C10.0491 8.83919 8.7573 11.2689 6.92029 13.3859C8.08185 14.536 9.21708 15.66 10.373 16.8044V16.8044ZM5.77367 14.5994C5.73594 14.6332 5.68185 14.6775 5.63203 14.7268C4.39573 15.9494 3.15943 17.1713 1.92527 18.3953C1.50676 18.8101 1.50605 19.244 1.92384 19.6588C2.61851 20.3489 3.3153 21.0377 4.01281 21.7258C4.45836 22.1652 4.88185 22.1638 5.32811 21.723C6.5516 20.513 7.77438 19.3024 8.99715 18.0911C9.05694 18.0319 9.11174 17.9671 9.13808 17.9397C8.00712 16.8171 6.89395 15.7121 5.77367 14.6001V14.5994ZM10.6641 3.40511C10.6484 3.64596 10.7957 3.84386 10.9851 4.03049C13.9303 6.94191 16.874 9.85544 19.8178 12.7683C19.8619 12.8119 19.9039 12.857 19.9509 12.8979C20.4214 13.3042 21.1345 13.0774 21.2648 12.4746C21.3295 12.1746 21.2142 11.9267 20.9993 11.714C18.0171 8.76454 15.0363 5.81368 12.0527 2.86564C11.9786 2.7924 11.8911 2.72549 11.7979 2.67972C11.269 2.41914 10.6705 2.78465 10.6648 3.40581L10.6641 3.40511ZM9.21495 20.194C8.83844 20.568 8.47331 20.9307 8.09751 21.3039C9.39146 22.5829 10.7004 23.8801 12.0149 25.1717C12.2057 25.3591 12.4463 25.445 12.721 25.3886C13.0235 25.3267 13.2406 25.1527 13.3281 24.8604C13.4235 24.5421 13.3409 24.2604 13.0961 24.0196C11.8335 22.7751 10.5744 21.5265 9.31388 20.2799C9.27758 20.244 9.23701 20.213 9.21424 20.1933L9.21495 20.194ZM11.4776 20.1003C12.6114 19.1721 12.3936 18.7045 11.4512 17.9714C11.0819 18.315 10.7103 18.6601 10.348 18.9975C10.7338 19.3742 11.0975 19.7299 11.4776 20.1003V20.1003Z" fill="white"/>
<path d="M22.4605 2.40435C22.3566 2.58957 22.2854 2.80508 22.1431 2.95368C21.6434 3.47694 21.1224 3.98049 20.6036 4.48545C20.2541 4.82561 19.7573 4.83054 19.4377 4.5101C19.1217 4.19247 19.1224 3.71569 19.4577 3.37623C19.9722 2.85508 20.4947 2.34097 21.0192 1.82897C21.2769 1.57755 21.5872 1.50431 21.9238 1.64657C22.2391 1.77967 22.3957 2.03109 22.4605 2.40435V2.40435Z" fill="white"/>
<path d="M22.4235 6.32639C22.6982 6.32639 22.9729 6.31794 23.247 6.3285C23.6818 6.3454 24.0021 6.68838 24 7.12009C23.9979 7.54758 23.6697 7.89478 23.2356 7.90253C22.6868 7.91239 22.1381 7.91168 21.5893 7.90323C21.1473 7.89689 20.8 7.53701 20.8028 7.10882C20.8057 6.68838 21.1416 6.34259 21.5737 6.3278C21.8569 6.31794 22.1402 6.32568 22.4235 6.32639V6.32639Z" fill="white"/>
<path d="M4.76157 19.8306C4.34804 19.8024 4.10534 19.67 3.95801 19.3862C3.8 19.0799 3.82705 18.7742 4.05409 18.5305C4.44911 18.1052 4.86192 17.6939 5.29253 17.3044C5.60285 17.0234 6.09395 17.0699 6.37509 17.3601C6.66904 17.6629 6.68114 18.1404 6.37936 18.4538C6.00071 18.8468 5.61566 19.2355 5.21068 19.601C5.07046 19.7278 4.86263 19.7806 4.76014 19.8306H4.76157Z" fill="white"/>
</g>
<defs>
<clipPath id="clip0_1_33">
<rect width="24" height="27" fill="white"/>
</clipPath>
</defs>
</svg>
