<svg width="25" height="27" viewBox="0 0 25 27" fill="none" xmlns="http://www.w3.org/2000/svg">
<g clip-path="url(#clip0_1_28)">
<path d="M12.1431 -0.000164795H12.8559C13.5769 0.163971 14.0965 0.644513 14.5925 1.17054C14.9183 1.51595 15.2638 1.84158 15.596 2.18106C15.8376 2.42759 16.1098 2.50999 16.4522 2.45396C17.1879 2.33399 17.9268 2.22523 18.6676 2.15008C19.7386 2.04197 20.7396 2.76378 20.9933 3.84747C21.1667 4.58707 21.2859 5.34183 21.3988 6.09461C21.4632 6.52374 21.6474 6.81509 22.028 7.00823C22.598 7.29761 23.1558 7.6127 23.7136 7.92713C24.9217 8.60872 25.3227 9.89083 24.7311 11.1782C24.4474 11.7959 24.1573 12.4102 23.8603 13.0206C23.7028 13.3443 23.7022 13.6514 23.8603 13.9758C24.1573 14.5862 24.4474 15.2012 24.7311 15.8182C25.3227 17.1062 24.9224 18.3877 23.7136 19.0692C23.1335 19.3962 22.5514 19.7199 21.9623 20.0284C21.6461 20.1938 21.474 20.4423 21.4179 20.7983C21.3165 21.4383 21.1903 22.0744 21.1023 22.7165C20.9104 24.1265 19.7858 25.0111 18.5407 24.8417C17.9446 24.7606 17.3441 24.7039 16.7557 24.5806C16.2067 24.4659 15.7643 24.5497 15.3907 25.0144C15.1529 25.3097 14.852 25.549 14.5925 25.8265C14.0984 26.3538 13.5776 26.8331 12.8565 26.9979H12.1438C11.4227 26.8337 10.9032 26.3525 10.4072 25.8272C10.0756 25.4752 9.72564 25.1416 9.3852 24.7988C9.17163 24.5833 8.92554 24.4864 8.62272 24.5319C7.88573 24.6433 7.14811 24.754 6.40858 24.8483C5.32224 24.9874 4.25757 24.2511 4.0051 23.1522C3.83489 22.4113 3.71375 21.6572 3.60091 20.9044C3.53652 20.4759 3.35419 20.1826 2.97359 19.9895C2.40364 19.7007 1.8458 19.385 1.28796 19.0706C0.0823987 18.3909 -0.321156 17.1029 0.268557 15.8195C0.552256 15.2018 0.842331 14.5875 1.14006 13.9771C1.29816 13.6534 1.29944 13.3469 1.14133 13.0226C0.843606 12.4122 0.554169 11.7972 0.270469 11.1802C-0.320519 9.8961 0.0823987 8.6074 1.28733 7.92779C1.86748 7.60084 2.44954 7.27718 3.03861 6.96934C3.35546 6.80389 3.52696 6.55538 3.58306 6.19942C3.68443 5.55936 3.8113 4.92325 3.898 4.28121C4.08926 2.87122 5.21959 1.98528 6.45959 2.15535C7.05567 2.23709 7.65622 2.29642 8.24402 2.41771C8.79166 2.53109 9.23538 2.44671 9.60897 1.98265C9.84677 1.68734 10.1477 1.44805 10.4072 1.17054C10.9012 0.643195 11.4221 0.163312 12.1431 -0.000823975V-0.000164795ZM23.5032 10.109C23.4707 9.72076 23.3215 9.48411 23.0429 9.3325C22.4284 8.99764 21.8163 8.65882 21.2024 8.3233C20.4763 7.92647 20.0612 7.30618 19.9318 6.46705C19.8234 5.76568 19.6998 5.06761 19.5761 4.36888C19.4964 3.91998 19.1355 3.63917 18.7129 3.69915C18.067 3.79012 17.4206 3.87845 16.778 3.99315C15.8842 4.15267 15.1236 3.92459 14.4829 3.24761C14.0436 2.78355 13.5827 2.3419 13.1313 1.88904C12.6972 1.45333 12.3019 1.45333 11.8684 1.88773C11.3807 2.37684 10.8949 2.86727 10.4046 3.35374C9.90797 3.84681 9.3138 4.10652 8.62718 4.03336C7.86151 3.95162 7.1003 3.81978 6.33782 3.70508C5.88326 3.63653 5.50712 3.89822 5.42297 4.36756C5.31331 4.97928 5.19218 5.59034 5.11695 6.20733C4.99072 7.25015 4.51003 8.00228 3.57414 8.4492C3.04435 8.70167 2.53879 9.0095 2.02367 9.29559C1.49707 9.5876 1.37849 9.96334 1.63733 10.5177C1.92485 11.1334 2.21302 11.7491 2.50755 12.3614C2.87286 13.1215 2.87349 13.8769 2.50883 14.6369C2.21875 15.2414 1.93442 15.8492 1.64944 16.4569C1.37403 17.0449 1.48815 17.4101 2.04407 17.7166C2.63442 18.0422 3.22668 18.3639 3.81703 18.6896C4.53298 19.0851 4.93781 19.704 5.06659 20.5326C5.17561 21.2333 5.29801 21.9321 5.42297 22.6301C5.50329 23.0804 5.8635 23.3605 6.2849 23.3012C6.93072 23.2102 7.57717 23.1206 8.2198 23.0078C9.11234 22.8516 9.87418 23.0843 10.5162 23.754C10.958 24.2155 11.417 24.6597 11.8684 25.1119C12.3019 25.547 12.6972 25.5463 13.1313 25.1113C13.619 24.6222 14.1048 24.1317 14.5951 23.6453C15.0917 23.1522 15.6859 22.8931 16.3725 22.967C17.1382 23.0494 17.8994 23.1805 18.6619 23.2959C19.1164 23.3645 19.4919 23.1021 19.5754 22.6321C19.6845 22.0204 19.8062 21.4093 19.8814 20.7923C20.0083 19.7495 20.489 18.9974 21.4249 18.5511C21.9547 18.2987 22.4602 17.9908 22.9754 17.7047C23.502 17.4121 23.6199 17.0383 23.3598 16.482C23.0761 15.8742 22.7949 15.2645 22.501 14.662C22.1224 13.8848 22.1224 13.1169 22.501 12.3397C22.7949 11.7372 23.0774 11.1281 23.3579 10.519C23.4261 10.3714 23.4682 10.2099 23.5026 10.1103L23.5032 10.109Z" fill="white"/>
<path d="M17.4211 7.58584C17.7717 7.59111 17.9936 7.73877 18.1268 8.00837C18.2601 8.27798 18.2422 8.55351 18.0745 8.80598C18.0127 8.89892 17.9311 8.97934 17.8533 9.05976C14.6402 12.3893 11.427 15.7181 8.2139 19.0477C8.03157 19.2368 7.84733 19.4109 7.5649 19.4135C7.24295 19.4168 7.00388 19.2711 6.86617 18.9791C6.7342 18.6983 6.75843 18.4155 6.94777 18.1617C7.00451 18.0859 7.07082 18.0167 7.13648 17.9481C10.3554 14.6127 13.5755 11.2772 16.7937 7.94113C16.9837 7.74404 17.1782 7.56606 17.4211 7.58452V7.58584Z" fill="white"/>
<path d="M9.52466 12.2067C8.05452 12.2482 6.77947 10.9701 6.74249 9.41836C6.70551 7.86533 7.91363 6.52654 9.38504 6.49094C10.8896 6.45403 12.1774 7.68933 12.2501 9.16853C12.3298 10.7848 11.0834 12.1869 9.52402 12.2067H9.52466ZM10.7315 9.34651C10.7309 8.62734 10.1851 8.06243 9.49151 8.06243C8.79915 8.06243 8.25215 8.63064 8.25279 9.34849C8.25279 10.0584 8.81382 10.6425 9.49406 10.6418C10.1749 10.6418 10.7321 10.0578 10.7315 9.34585V9.34651Z" fill="white"/>
<path d="M15.5429 14.7973C17.101 14.8368 18.2958 16.1295 18.2556 17.7326C18.2154 19.3265 16.9531 20.5552 15.3918 20.5077C13.9402 20.4636 12.6683 19.1241 12.7486 17.4702C12.8188 16.0273 14.1091 14.761 15.5429 14.7979V14.7973ZM16.7453 17.6443C16.7408 16.9323 16.176 16.3516 15.497 16.3602C14.8085 16.3694 14.2628 16.9468 14.2666 17.6614C14.2711 18.3806 14.8174 18.9402 15.5136 18.9376C16.2047 18.9349 16.7504 18.3621 16.7453 17.6443Z" fill="white"/>
</g>
<defs>
<clipPath id="clip0_1_28">
<rect width="25" height="27" fill="white"/>
</clipPath>
</defs>
</svg>
