<svg width="214" height="122" viewBox="0 0 214 122" fill="none" xmlns="http://www.w3.org/2000/svg">
<g clip-path="url(#clip0_80_2616)">
<path d="M60.725 63.2837C60.5731 63.2795 60.4212 63.2773 60.2714 63.2773C60.1216 63.2773 59.9675 63.2795 59.8155 63.2837C54.6004 63.444 50.3888 66.2436 48.6126 71.1973C47.4763 74.3661 47.4998 78.5139 48.5763 81.6954C49.8282 85.3959 52.3876 87.8664 55.8202 88.9613C59.3768 90.0985 63.98 89.7757 67.1493 87.8706C69.3642 86.5393 71.0313 84.4591 71.9665 81.6954C73.0429 78.5139 73.0664 74.3661 71.9301 71.1973C70.1539 66.2436 65.9402 63.444 60.7272 63.2837H60.725ZM63.9222 81.1236C63.0919 82.438 61.6709 83.0857 60.2714 83.0541C58.8697 83.0857 57.4487 82.438 56.6205 81.1236C55.3172 79.0582 55.3772 75.7311 55.9935 73.4674C56.2118 72.6615 56.5328 71.9779 56.9565 71.4209C57.7397 70.3893 59.0088 69.8429 60.2714 69.8154C61.534 69.8429 62.803 70.3893 63.5862 71.4209C64.0099 71.9779 64.3309 72.6615 64.5492 73.4674C65.1655 75.7311 65.2255 79.0561 63.9222 81.1236Z" fill="white"/>
<path d="M28.5905 59.7412C30.2533 57.7981 32.5324 58.9079 34.4135 59.8256C34.8244 60.026 35.2203 60.218 35.6119 60.3826C35.7895 60.4564 35.9586 60.5218 36.1191 60.5745C37.7155 61.1125 39.1621 60.9986 40.3777 60.3762C41.4241 59.8404 42.2844 58.9311 42.9029 57.7412C43.0997 57.3593 43.4785 56.5787 43.4464 56.1863C43.3694 55.2833 41.9891 54.7981 41.4156 55.6441C40.7286 56.6546 39.8726 57.2559 38.5886 57.0344C37.8632 56.9099 37.1955 56.5112 36.4722 56.0829C35.8665 55.7242 35.2267 55.3445 34.4627 55.0512C33.6816 54.7517 32.9005 54.5871 32.1344 54.5808C31.3939 54.5744 30.6728 54.7158 29.988 55.028C29.2218 55.3783 28.552 55.9078 28.017 56.5513C27.5227 57.1462 27.1439 57.8361 26.9128 58.5682C26.825 58.8488 26.763 59.1062 26.8315 59.3741C27.0412 60.2032 28.0406 60.391 28.5927 59.7454L28.5905 59.7412Z" fill="white"/>
<path d="M46.7293 85.9317C45.7941 85.3431 45.3255 83.6849 45.3255 80.957V75.9695C45.3255 73.6214 45.1029 71.634 44.6599 70.0095C43.7611 66.7247 41.9635 64.904 38.6658 63.9124C34.7581 62.7394 29.7399 63.2309 26.562 64.7225C26.104 64.9377 25.8536 65.4546 25.9949 65.9525L27.174 70.1509C27.1911 70.2268 27.2189 70.3028 27.2553 70.3745C27.5164 70.8935 28.1541 71.1087 28.6806 70.8513C30.8355 69.7964 36.2497 69.1382 37.3754 71.6847C33.4549 71.229 28.0685 72.4421 25.4513 75.5919C23.3498 78.1194 22.8812 82.0583 24.2679 85.0478C25.2095 87.0794 26.8958 88.4044 29.0379 89.0795C32.1431 90.0563 36.4851 89.7061 39.0596 87.5963C39.6416 88.3622 40.3414 88.9508 41.1589 89.301C43.3246 90.2272 45.9118 89.3601 47.0846 87.3326C47.3628 86.8495 47.2108 86.2313 46.7314 85.9317H46.7293ZM35.0535 83.0583C34.4671 83.1828 33.8273 83.2271 33.2473 83.1722C30.369 82.9064 30.5209 79.5667 32.7851 78.5033C34.0691 77.8979 35.9886 77.8768 37.6728 77.9717C37.6728 80.3494 37.8055 82.4718 35.0556 83.0583H35.0535Z" fill="white"/>
<path d="M7.93531 64.2307C7.86041 63.5113 8.11507 62.8003 8.67147 62.2961C9.78855 61.2877 11.614 61.3742 13.3238 61.8699C14.7833 62.2919 15.5922 62.8003 16.8441 63.5198C17.0902 63.659 17.3492 63.7455 17.6959 63.6527C18.0233 63.5662 18.3036 63.3257 18.4235 62.986L19.9643 58.6674C20.1804 58.0597 20.4714 57.4479 19.8273 56.9395C14.075 52.393 1.87483 53.6504 0.197074 62.3868C-0.329366 65.1232 0.325474 68.0641 2.22151 70.4017C5.05701 73.8976 9.80353 74.463 12.6497 77.3048C13.6705 78.3259 14.0985 79.5622 13.7411 80.5855C13.2211 82.0749 11.3208 82.5538 9.88485 82.5538C7.81975 82.5538 5.89589 81.7585 4.20101 80.6509C3.43275 80.1508 2.64737 79.7859 2.13591 81.0116L0.222754 85.594C-0.230926 86.6805 0.0151736 86.9505 0.926814 87.4864C6.64703 90.8451 16.8548 90.7417 20.4907 84.3788C22.4852 80.8914 22.1471 76.2921 19.3437 73.1001C15.5238 68.7477 8.29911 67.7498 7.93317 64.235L7.93531 64.2307Z" fill="white"/>
<path d="M175.754 71.3279C174.098 75.6128 174.508 81.1994 177.299 85.0054C179.201 87.6046 181.81 88.8746 184.967 89.3915C188.799 90.0202 193.18 89.4126 196.056 87.6763C197.122 87.0349 197.706 86.5855 197.049 85.383L195.344 82.077C194.678 80.8386 194.055 81.3323 193.067 81.8386C191.093 82.8492 189.118 83.3239 186.92 82.8344C184.975 82.4019 183.3 81.2099 182.846 79.1677H197.385C199.078 79.1677 199.405 79.1951 199.793 77.6023C200.283 75.5832 200.06 73.0262 199.461 71.157C196.14 60.775 179.985 60.372 175.754 71.3258V71.3279ZM183.285 72.963C184.896 68.8912 191.016 68.7878 192.163 72.963H183.285Z" fill="white"/>
<path d="M173.049 85.9317C172.114 85.3431 171.645 83.6849 171.645 80.957V75.9695C171.645 73.6214 171.423 71.634 170.978 70.0095C170.081 66.7247 168.281 64.904 164.986 63.9124C161.078 62.7394 156.06 63.2309 152.882 64.7225C152.424 64.9377 152.176 65.4546 152.315 65.9525L153.494 70.1509C153.513 70.2268 153.539 70.3028 153.575 70.3745C153.834 70.8935 154.474 71.1087 155 70.8513C157.155 69.7964 162.57 69.1382 163.695 71.6847C159.775 71.229 154.388 72.4421 151.771 75.5919C149.67 78.1194 149.203 82.0583 150.588 85.0478C151.529 87.0794 153.216 88.4044 155.356 89.0795C158.463 90.0563 162.803 89.7061 165.377 87.5963C165.959 88.3622 166.661 88.9508 167.479 89.301C169.644 90.2272 172.232 89.3601 173.402 87.3326C173.68 86.8495 173.529 86.2313 173.049 85.9317ZM161.373 83.0583C160.787 83.1828 160.147 83.2271 159.565 83.1722C156.687 82.9064 156.841 79.5667 159.103 78.5033C160.389 77.8979 162.306 77.8768 163.991 77.9717C163.991 80.3494 164.123 82.4718 161.373 83.0583Z" fill="white"/>
<path d="M213.001 85.1384C212.41 84.9506 211.963 84.5582 211.659 83.9633C211.3 83.2607 211.12 82.2734 211.12 81.0012V54.7898H211.116C211.116 54.7096 211.107 54.6294 211.088 54.5472C210.953 53.9839 210.379 53.6358 209.808 53.7708L204.381 55.0577C203.863 55.1316 203.467 55.5704 203.467 56.0999V83.4126C203.467 85.3473 203.848 86.8389 204.612 87.8832C205.453 89.033 206.682 89.6089 208.299 89.6089C209.485 89.6089 210.521 89.3727 211.402 88.9022C211.424 88.8916 211.447 88.8811 211.467 88.8684C212.38 88.3642 213.102 87.6174 213.626 86.6258H213.624C213.649 86.573 213.673 86.5182 213.692 86.4612C213.872 85.9106 213.564 85.3177 213.005 85.1426L213.001 85.1384Z" fill="white"/>
<path d="M132.811 85.9317C131.876 85.3431 131.407 83.6849 131.407 80.957V75.9695C131.407 73.6214 131.184 71.634 130.739 70.0095C129.843 66.7247 128.043 64.904 124.745 63.9124C120.84 62.7394 115.819 63.2309 112.641 64.7225C112.183 64.9377 111.933 65.4546 112.072 65.9525L113.253 70.1509C113.271 70.2268 113.298 70.3028 113.335 70.3745C113.596 70.8935 114.234 71.1087 114.762 70.8513C116.917 69.7964 122.329 69.1382 123.457 71.6847C119.536 71.229 114.15 72.4421 111.533 75.5919C109.431 78.1194 108.963 82.0583 110.349 85.0478C111.291 87.0794 112.977 88.4044 115.117 89.0795C118.225 90.0563 122.565 89.7061 125.139 87.5963C125.721 88.3622 126.421 88.9508 127.24 89.301C129.406 90.2272 131.993 89.3601 133.166 87.3326C133.444 86.8495 133.292 86.2313 132.813 85.9317H132.811ZM122.002 82.8346C120.887 83.3916 118.593 83.438 117.683 82.4401C116.671 81.3304 117.189 79.2924 118.864 78.5033C120.148 77.8979 122.068 77.8768 123.752 77.9717C123.771 80.3367 123.47 82.0983 122.002 82.8325V82.8346Z" fill="white"/>
<path d="M148.769 61.1272C149.674 61.4078 150.127 61.4205 150.564 60.3044L151.951 56.7706C152.422 55.5723 152.051 55.2664 150.834 54.9246C150.068 54.7094 149.342 54.5385 148.657 54.4183C147.778 54.2621 146.986 54.1841 146.28 54.1841C144.867 54.1841 143.577 54.433 142.409 54.9288C141.232 55.4267 140.194 56.1736 139.288 57.1651C138.394 58.142 137.709 59.2707 137.234 60.5513C136.872 61.5218 136.633 62.583 136.511 63.7307H134.062C133.474 63.7307 132.995 64.2011 132.995 64.7813V69.2413C132.995 69.8236 133.474 70.2941 134.062 70.2941H136.434V88.1087C136.434 88.6889 136.911 89.1615 137.499 89.1615H143.018C143.607 89.1615 144.086 88.691 144.086 88.1087V70.2941H147.814C148.403 70.2941 148.882 69.8236 148.882 69.2413V64.7813C148.882 64.2011 148.405 63.7307 147.814 63.7307H144.016C144.298 60.6947 146.282 60.3656 148.762 61.1294L148.769 61.1272Z" fill="white"/>
<path d="M100.495 74.2015C101.002 73.9335 101.486 73.6255 101.941 73.2732C102.735 72.6635 103.446 71.9272 104.071 71.0706C107.041 66.9967 106.626 60.5535 102.478 57.3847C97.488 53.5703 89.5272 55.1336 83.6015 55.1336C83.013 55.1336 82.5337 55.6041 82.5337 56.1843V88.1068C82.5337 88.6869 83.0109 89.1595 83.6015 89.1595H89.5743C90.1628 89.1595 90.6421 88.689 90.6421 88.1068V75.9019C92.2364 76.0053 92.6024 75.8386 94.2373 78.4188L100.942 88.6089C101.122 88.938 101.475 89.1616 101.881 89.1616H108.488V89.1574C108.689 89.1574 108.892 89.1026 109.072 88.9865C109.562 88.668 109.699 88.0203 109.376 87.535L100.497 74.2057L100.495 74.2015ZM90.6421 69.0263V62.0704C93.1588 61.9059 97.8047 62.0177 98.0358 65.2878C98.3055 69.1085 93.3792 69.214 90.6421 69.0284V69.0263Z" fill="white"/>
<path fill-rule="evenodd" clip-rule="evenodd" d="M112.166 44.0326C117.906 38.3426 127.005 30.3783 134.039 24.9141C141.161 19.3823 148.369 18.5321 153.472 19.4899C150.205 34.1991 136.913 45.2098 121.013 45.2098C117.948 45.2098 114.982 44.7984 112.166 44.0347V44.0326ZM106.868 42.0979H106.872C112.943 39.2772 118.008 34.697 121.392 29.026C127.983 16.1734 120.185 4.0382 106.872 -0.00195312H106.868C93.5546 4.0382 85.7564 16.1734 92.3476 29.026C95.731 34.697 100.794 39.2772 106.868 42.0979ZM101.575 44.0326C98.7591 44.7984 95.7909 45.2077 92.7286 45.2077C76.8284 45.2077 63.539 34.1969 60.269 19.4878C65.3729 18.53 72.5805 19.3823 79.7024 24.912C86.7366 30.3762 95.8358 38.3405 101.575 44.0304V44.0326Z" fill="#29B5B5"/>
<path fill-rule="evenodd" clip-rule="evenodd" d="M175.773 113.989L176.728 111.869C177.671 112.618 180.584 113.584 181.031 111.918C181.419 110.477 178.771 109.789 177.785 109.234C176.287 108.394 175.313 106.998 175.874 105.287C176.176 104.367 176.927 103.749 177.947 103.403C179.606 102.839 181.686 103.181 183.163 103.922L182.392 105.977C181.947 105.605 180.982 105.255 180.128 105.219C179.456 105.192 178.575 105.392 178.527 106.198C178.51 106.534 178.667 106.888 178.994 107.135C180.312 108.129 182.112 108.143 183.203 109.538C184.074 110.65 184.059 112.131 183.295 113.264C181.669 115.677 178.027 115.175 175.773 113.991V113.989Z" fill="#29B5B5"/>
<path fill-rule="evenodd" clip-rule="evenodd" d="M111.019 112.673C111.019 113.511 110.846 115.036 110.035 115.515C110.49 116.302 111.344 116.525 112.089 116.298C113.454 115.88 113.66 114.5 113.692 113.241C113.715 112.179 113.713 111.108 113.707 110.04V105.546H116.046V103.373H113.664C113.664 101.217 114.751 100.477 116.84 101.158L117.634 99.137C113.923 98.0082 111.182 99.4661 111.017 103.373H109.341V105.546H111.017V112.186H111.021V112.675L111.019 112.673Z" fill="#29B5B5"/>
<path fill-rule="evenodd" clip-rule="evenodd" d="M137.29 107C137.29 106.163 137.114 104.637 136.305 104.16C136.761 103.373 137.615 103.15 138.36 103.378C139.04 103.587 139.432 104.034 139.659 104.584C141.334 102.441 144.615 102.722 146.064 104.39C146.355 104.688 146.59 105.515 146.678 106.88V114.741H143.986V107.196C143.986 104.935 141.02 104.852 139.995 106.566V114.741H137.305V112.646L137.292 106.998L137.29 107Z" fill="#29B5B5"/>
<path fill-rule="evenodd" clip-rule="evenodd" d="M190.629 107C190.629 106.163 190.454 104.637 189.645 104.16C190.101 103.373 190.957 103.15 191.699 103.378C192.38 103.587 192.772 104.034 192.998 104.584C194.674 102.441 197.955 102.722 199.401 104.39C199.692 104.688 199.928 105.515 200.015 106.88V114.741H197.323V107.196C197.323 104.935 194.357 104.852 193.332 106.566V114.741H190.642V112.646L190.629 106.998V107Z" fill="#29B5B5"/>
<path fill-rule="evenodd" clip-rule="evenodd" d="M159.681 107C159.681 106.897 159.679 102.23 159.672 102.11C159.627 101.249 159.407 100.025 158.696 99.6075C159.152 98.8205 160.006 98.5969 160.751 98.8248C161.431 99.0336 162.009 99.599 162.05 100.559C162.075 100.998 162.129 104.485 162.172 104.437C163.879 102.456 167.042 102.762 168.455 104.392C168.746 104.69 168.981 105.517 169.069 106.882V114.743H166.377V107.198C166.377 104.937 163.411 104.854 162.386 106.568V114.743H159.696V112.648L159.683 107H159.681Z" fill="#29B5B5"/>
<path fill-rule="evenodd" clip-rule="evenodd" d="M135.22 111.256V108.823C135.22 106.739 135.013 104.631 132.914 103.656C131.069 102.802 128.422 103.051 126.817 103.804L127.397 105.869C128.98 105.093 132.505 104.85 132.505 107.371C130.968 107.009 128.792 107.251 127.324 108.209C126.192 108.945 125.627 110.049 125.614 111.388C125.593 113.8 127.324 114.96 129.616 114.96C130.277 114.96 130.91 114.834 131.516 114.585C132.122 114.329 132.548 114.004 132.792 113.61C133.277 115.133 135.336 115.511 136.143 114.114C135.526 113.726 135.216 112.772 135.216 111.258L135.22 111.256ZM132.528 110.441C132.528 112.045 131.722 112.85 130.11 112.85C127.775 112.85 127.671 110.161 129.721 109.466C130.589 109.171 131.696 109.213 132.528 109.372V110.441Z" fill="#29B5B5"/>
<path fill-rule="evenodd" clip-rule="evenodd" d="M125.006 105.85C123.275 104.703 121.503 105.732 121.114 107.517C121.037 107.861 121.034 108.161 121.034 108.504V114.743H118.345V106.863C118.345 105.994 118.216 104.646 117.396 104.161C118.255 102.675 120.386 103.182 120.829 104.943C121.61 102.977 124.576 102.671 126.151 103.57L125.008 105.85H125.006Z" fill="#29B5B5"/>
<path fill-rule="evenodd" clip-rule="evenodd" d="M157.682 104.262L156.53 106.24C155.193 105.013 152.749 105.025 151.563 106.443C150.108 108.184 150.386 111.559 152.419 112.433C153.84 113.042 155.612 112.764 156.783 111.762L157.774 113.848C155.334 115.348 151.58 115.559 149.434 113.42C147.258 111.257 147.397 106.947 149.582 104.806C151.593 102.829 155.409 102.559 157.684 104.259L157.682 104.262Z" fill="#29B5B5"/>
<path fill-rule="evenodd" clip-rule="evenodd" d="M186.698 98.7637C187.132 98.7637 187.5 98.9156 187.804 99.2173C188.108 99.519 188.262 99.8797 188.262 100.308C188.262 100.736 188.108 101.099 187.804 101.399C187.5 101.7 187.13 101.852 186.698 101.852C186.266 101.852 185.897 101.7 185.591 101.399C185.288 101.099 185.131 100.732 185.131 100.308C185.131 99.8839 185.285 99.519 185.591 99.2173C185.897 98.9156 186.268 98.7637 186.698 98.7637Z" fill="#29B5B5"/>
<path fill-rule="evenodd" clip-rule="evenodd" d="M185.309 106.445C185.309 106.084 185.292 105.755 185.255 105.458C185.144 104.508 184.853 103.884 184.382 103.589C184.838 102.802 185.692 102.578 186.439 102.808C187.804 103.226 188.007 104.605 188.04 105.865C188.082 107.654 188.044 109.466 188.044 111.257C188.044 112.772 188.352 113.726 188.97 114.114C188.515 114.901 187.661 115.125 186.914 114.897C185.641 114.504 185.377 113.279 185.322 112.095C185.238 110.253 185.309 108.3 185.309 106.447V106.445Z" fill="#29B5B5"/>
<path fill-rule="evenodd" clip-rule="evenodd" d="M172.523 98.6328C172.957 98.6328 173.325 98.7847 173.629 99.0864C173.933 99.3881 174.089 99.7489 174.089 100.177C174.089 100.605 173.935 100.968 173.629 101.268C173.323 101.57 172.955 101.721 172.523 101.721C172.09 101.721 171.722 101.57 171.416 101.268C171.112 100.968 170.956 100.601 170.956 100.177C170.956 99.7531 171.11 99.3881 171.416 99.0864C171.72 98.7847 172.092 98.6328 172.523 98.6328Z" fill="#29B5B5"/>
<path fill-rule="evenodd" clip-rule="evenodd" d="M171.134 106.314C171.134 105.953 171.117 105.624 171.08 105.327C170.969 104.377 170.678 103.753 170.207 103.458C170.661 102.671 171.517 102.447 172.264 102.675C173.629 103.093 173.834 104.472 173.864 105.732C173.907 107.521 173.869 109.333 173.869 111.124C173.869 112.639 174.177 113.593 174.795 113.981C174.339 114.768 173.486 114.992 172.739 114.764C171.465 114.371 171.202 113.146 171.146 111.962C171.063 110.12 171.134 108.169 171.134 106.314Z" fill="#29B5B5"/>
<path fill-rule="evenodd" clip-rule="evenodd" d="M211.946 102.808C211.509 102.943 210.981 103.257 210.645 103.719C208.364 102.656 205.218 103.08 203.456 104.81C201.269 106.952 201.132 111.262 203.309 113.424C205.094 115.201 207.987 115.353 210.313 114.492V116.943C210.283 119.914 206.016 120.329 204.991 118.618L204.777 120.749C206.485 122.73 210.741 122.334 212.389 119.732C212.611 119.382 212.915 118.608 213.003 117.243V115.329L213.014 110.985C213.014 110.882 213.016 106.215 213.022 106.095C213.065 105.234 213.288 104.011 213.998 103.593C213.542 102.806 212.688 102.582 211.944 102.81L211.946 102.808ZM210.268 107.836C210.268 110.848 209.134 112.361 206.863 112.361C203.578 112.361 203.429 107.31 206.316 106.006C207.54 105.454 209.098 105.532 210.268 105.827V107.836Z" fill="#29B5B5"/>
</g>
<defs>
<clipPath id="clip0_80_2616">
<rect width="214" height="122" fill="white"/>
</clipPath>
</defs>
</svg>
