<svg width="116" height="86" viewBox="0 0 116 86" fill="none" xmlns="http://www.w3.org/2000/svg">
<g clip-path="url(#clip0_1_2)">
<path fill-rule="evenodd" clip-rule="evenodd" d="M47.6859 83.1291C47.7239 83.6654 47.9559 83.1922 47.9748 83.1586L50.2228 79.2151C51.2013 77.4063 51.332 77.1644 52.3337 77.1602C52.5129 77.1602 52.6606 77.1834 52.7744 77.2128C52.882 77.2402 52.9621 77.2759 53.0127 77.3012L53.0254 77.3075L53.0359 77.3138C53.2658 77.4337 53.2573 77.6482 53.0528 77.766C53.0486 77.766 53.0444 77.7702 53.0359 77.7765C52.9474 77.8396 52.6078 77.9826 52.3232 78.3191C50.8238 80.0774 48.9322 83.7117 47.648 85.8149C47.5742 85.939 47.5151 85.9706 47.3549 85.9558C47.0343 85.9285 45.4527 85.7539 45.3958 84.3553C45.3705 83.7075 45.322 82.7232 45.2545 81.72C45.1849 80.6663 45.128 79.2151 44.8433 78.2266C44.7885 78.0394 44.7104 77.8585 44.5797 77.7596C44.5333 77.7239 44.4996 77.6713 44.489 77.6103C44.449 77.3916 44.6303 77.3369 44.8032 77.3075C45.3346 77.217 46.3764 77.0677 46.9141 77.4042C47.2768 77.6314 47.3148 78.0225 47.3443 78.4537L47.6796 83.127L47.6859 83.1291Z" fill="#04B4B4"/>
<path fill-rule="evenodd" clip-rule="evenodd" d="M34.8772 83.167C34.9151 83.7033 35.1471 83.2301 35.1661 83.1964L37.414 79.2529C38.3904 77.4442 38.5233 77.2023 39.5249 77.2002C39.7042 77.2002 39.8518 77.2233 39.9657 77.2528C40.0732 77.2801 40.1534 77.3159 40.204 77.3411L40.2166 77.3474L40.2272 77.3537C40.457 77.4736 40.4486 77.6881 40.244 77.8059C40.2398 77.8059 40.2356 77.8101 40.2272 77.8164C40.1386 77.8795 39.7991 78.0226 39.5144 78.3591C38.0151 80.1173 36.1235 83.7517 34.8392 85.8549C34.7654 85.979 34.7064 86.0105 34.5461 85.9958C34.2235 85.9685 32.644 85.7939 32.587 84.3953C32.5617 83.7475 32.5132 82.7632 32.4458 81.7599C32.3762 80.7062 32.3192 79.255 32.0345 78.2665C31.9797 78.0793 31.9017 77.8985 31.7709 77.7996C31.7245 77.7639 31.6908 77.7113 31.6803 77.6503C31.6402 77.4316 31.8216 77.3769 31.9945 77.3474C32.5259 77.257 33.5676 77.1077 34.1054 77.4442C34.4681 77.6713 34.506 78.0625 34.5356 78.4937L34.8709 83.167H34.8772Z" fill="#04B4B4"/>
<path fill-rule="evenodd" clip-rule="evenodd" d="M41.9058 74.8047C41.9058 74.7016 41.9205 74.5922 41.95 74.4829C42.0428 74.14 42.2706 73.8267 42.5553 73.5995C42.8463 73.3682 43.2006 73.2251 43.5464 73.223C43.6561 73.223 43.7594 73.2357 43.8564 73.2609C44.0905 73.3219 44.2824 73.4523 44.4152 73.629C44.5481 73.8035 44.6219 74.0244 44.6219 74.2662C44.6219 74.3735 44.6071 74.485 44.5755 74.5985C44.4848 74.935 44.2549 75.2484 43.9639 75.4735C43.6729 75.6985 43.3165 75.8415 42.9665 75.8436C42.861 75.8436 42.7598 75.831 42.667 75.8058C42.4351 75.7448 42.2453 75.6144 42.1103 75.4377C41.9775 75.2631 41.9037 75.0444 41.9037 74.8025" fill="#04B4B4"/>
<path fill-rule="evenodd" clip-rule="evenodd" d="M41.2837 77.7575C41.2584 77.686 41.2246 77.6566 41.2267 77.5704C41.2352 77.3811 41.4123 77.3369 41.5641 77.2969C42.1609 77.1371 42.9538 77.1245 43.3967 77.5851C43.7931 77.9973 43.635 78.4158 43.5063 78.8849C43.3165 79.5684 43.1078 80.273 42.9095 80.9397C42.705 81.6274 42.5131 82.2752 42.3613 82.841C42.2643 83.2027 42.1799 83.5414 42.1272 83.8316C42.0892 84.0398 42.0724 84.1997 42.0745 84.3216C42.0808 84.6413 42.2685 84.7339 42.5637 84.6203C42.6649 84.5803 42.7872 84.5151 42.937 84.4142C43.1204 84.2796 43.3798 84.4478 43.3186 84.6708C43.0508 85.6593 41.4207 86.0694 40.5097 85.8296C39.7421 85.6277 39.5249 85.0304 39.7168 84.3174C40.2567 82.3215 40.9695 80.4202 41.2499 78.357C41.2731 78.195 41.3343 77.8943 41.2837 77.7554" fill="#04B4B4"/>
<path fill-rule="evenodd" clip-rule="evenodd" d="M51.119 84.5614C51.0009 83.6255 51.4649 82.6159 52.127 81.9661C53.1582 80.9502 54.7841 80.5022 56.2202 80.4349C56.5281 80.4202 56.5428 80.4286 56.6377 79.865C56.6883 79.5621 56.6989 79.2718 56.6272 79.0384C56.5639 78.8302 56.4226 78.664 56.1611 78.5757C55.3218 78.2897 54.0945 78.8807 53.464 79.4107C53.4218 79.4464 53.386 79.4843 53.3311 79.5053C53.154 79.5747 52.9389 79.4254 53.0254 79.1604C53.8035 76.8342 58.9827 76.1591 58.9721 78.9522C58.9721 79.173 58.9426 79.4023 58.9004 79.6336C58.6432 80.9797 57.8545 82.7022 57.728 84.0335C57.6984 84.3574 57.6457 84.8453 58.1371 84.5951C58.2552 84.5362 58.3859 84.4478 58.5166 84.3637C58.7022 84.2354 58.9532 84.4037 58.8941 84.6245C58.5926 85.7392 56.2877 86.2881 55.5707 85.4237C55.4821 85.3144 55.4167 85.184 55.383 85.0283C55.2164 85.1566 55.0161 85.2807 54.7968 85.3922C53.4556 86.0799 51.3447 86.3512 51.1169 84.5614M55.8174 82.7674L56.1379 81.7137C56.1717 81.6001 56.159 81.5097 55.8216 81.5833C54.9127 81.781 53.677 82.2121 53.3733 83.3437C53.3607 83.3899 53.3501 83.4362 53.3438 83.4804C53.2721 83.9431 53.464 84.1639 53.7592 84.2459C54.1515 84.3532 54.6723 84.2733 55.0751 84.0398C55.6382 83.7117 55.6487 83.3226 55.8174 82.7674V82.7674Z" fill="#04B4B4"/>
<path fill-rule="evenodd" clip-rule="evenodd" d="M77.4409 80.0164C77.8458 79.3265 77.6454 78.4811 76.7492 78.4853C75.6653 78.4895 74.9862 79.539 74.5687 80.4433C74.516 80.5527 74.4 80.6915 74.7016 80.763C75.6695 80.9965 76.8863 80.9649 77.4409 80.0185M78.2633 83.1838C78.2633 83.1838 78.2802 83.1691 78.2886 83.1607C78.4974 82.9966 78.78 83.2343 78.6576 83.4635L78.6534 83.4762C78.2675 84.5362 77.4746 85.2555 76.4708 85.6467C75.1001 86.1788 73.1411 86.2398 72.249 84.8622C71.5025 83.7096 71.7746 82.1217 72.3123 80.9334C72.7024 80.0711 73.295 79.2424 74.0225 78.5967C74.9103 77.808 76.0006 77.2822 77.1794 77.2801C77.5801 77.2801 77.928 77.3222 78.2274 77.4C78.7631 77.5409 79.1406 77.7975 79.3873 78.1172C79.6382 78.4411 79.7479 78.826 79.7479 79.2214C79.7479 79.4254 79.7184 79.6336 79.6635 79.8397L79.6593 79.8502C79.4126 80.6221 78.8959 81.1731 78.2654 81.5433C77.5063 81.9913 76.5784 82.1785 75.7644 82.1806C75.5092 82.1806 75.2119 82.1553 74.9251 82.0944C74.8302 82.0754 74.7353 82.0502 74.6446 82.0228C74.5729 82.0018 74.5033 81.9766 74.4359 81.9492C74.2355 81.8672 74.1997 81.8588 74.1786 82.0649C74.1744 82.107 74.1701 82.149 74.168 82.1911C74.1554 82.3404 74.1491 82.4898 74.1533 82.6391C74.1638 83.0702 74.2566 83.4888 74.5413 83.8505C75.5156 85.0914 77.4135 83.9746 78.2675 83.188L78.2633 83.1838ZM78.6492 83.4783H78.6513H78.6492Z" fill="#04B4B4"/>
<path fill-rule="evenodd" clip-rule="evenodd" d="M68.1011 73.4186V73.4228V73.4186ZM65.4778 74.2641C65.5305 73.9844 65.5684 73.7215 65.5811 73.4838C65.5895 73.3051 65.5705 73.1305 65.4714 73.0337C65.4356 73.0001 65.4187 72.9496 65.4292 72.8907C65.4651 72.6804 65.6718 72.6299 65.8616 72.6026C66.4457 72.5185 67.4727 72.367 67.9155 72.6909C68.215 72.9118 68.1158 73.2861 67.9956 73.7005L67.6224 75.0002L67.0129 77.2738C66.9602 77.4673 66.9096 77.6503 66.8801 77.8101C66.8653 77.8985 66.8674 77.9931 66.956 77.9658C67.0593 77.9363 67.2006 77.8564 67.3018 77.8059C68.6768 77.1161 70.6886 76.9121 71.3992 78.4916C71.6628 79.0763 71.7071 79.8881 71.4182 80.9628C71.0133 82.4666 70.2457 83.7622 69.1428 84.6624C68.4195 85.2555 67.5528 85.6761 66.5511 85.8717C65.7139 86.0358 64.4086 86.0904 63.5503 85.6992C62.9831 85.4405 62.6182 84.9863 62.7891 84.3553C63.0273 83.4698 64.8304 77.175 65.4799 74.262L65.4778 74.2641ZM67.1711 78.9984C65.9754 79.8586 65.7287 81.4949 65.4061 82.8641C65.2943 83.3352 65.1994 83.8022 65.134 84.2733C65.0349 85.0031 65.9164 84.8622 66.3571 84.7234C67.2154 84.4499 67.886 83.7117 68.3309 82.9609C68.8307 82.1154 69.2398 80.8493 69.2103 79.8586C69.1681 78.439 68.1517 78.2939 67.169 79.0005L67.1711 78.9984Z" fill="#04B4B4"/>
<path fill-rule="evenodd" clip-rule="evenodd" d="M86.3463 84.7023C86.2155 85.1882 85.9983 85.5015 85.7284 85.695C85.4543 85.8927 85.1401 85.96 84.8132 85.9621C84.6108 85.9621 83.7187 85.8612 83.5774 85.7602C83.5015 85.7056 83.4615 85.6088 83.4826 85.5121C83.4952 85.4511 83.5311 85.4027 83.5774 85.369C83.7588 85.2365 84.0414 84.4058 84.1405 84.1345C84.7014 82.6033 85.1569 80.8429 85.5091 79.2908C85.5808 78.9774 85.5217 78.7818 85.3868 78.6787C85.2982 78.6114 85.1738 78.5715 85.0283 78.5589C84.8638 78.5441 84.6761 78.561 84.4821 78.6051C83.8347 78.7524 83.1473 79.1835 83.0081 79.703L81.8419 84.0503C81.6838 84.6434 81.5783 85.327 81.0469 85.7098C80.7728 85.9075 80.4586 85.9748 80.1317 85.9748C79.7563 85.9748 79.3557 85.8927 78.9887 85.8128C78.8053 85.7729 78.7357 85.5541 78.858 85.4153C79.052 85.1987 79.0098 85.287 79.1532 84.9379C79.227 84.7591 79.3219 84.5172 79.44 84.1976C79.6593 83.6023 79.9271 82.7695 80.2329 81.6422C80.3911 81.0596 81.165 77.9552 81.0321 77.8585C80.9499 77.7975 80.9183 77.6945 80.9436 77.6019L80.9478 77.5851C80.9731 77.4925 81.049 77.4252 81.1376 77.4084C81.2852 77.3685 81.4265 77.3327 81.5636 77.3075C81.7154 77.278 81.863 77.2612 82.0043 77.2591C82.289 77.2591 82.5336 77.3054 82.7297 77.3916C83.1662 77.5872 83.1262 77.8459 83.2548 77.9384C83.3138 77.9805 83.4172 77.9679 83.647 77.8354C84.0646 77.5956 84.5644 77.4379 85.062 77.3411C85.8444 77.1897 87.1033 77.1476 87.6959 77.7702C87.9764 78.0667 87.776 78.1109 88.55 77.7849C88.9106 77.6335 89.3112 77.5073 89.714 77.4189C91.0889 77.1203 93.1429 77.0908 92.5609 79.1856C92.3711 79.8713 92.1771 80.5169 91.9936 81.129C91.808 81.7494 91.6309 82.3341 91.4833 82.8873C91.323 83.4804 91.1986 84.0083 91.1902 84.3742C91.1754 85.0578 91.7321 84.6666 92.0695 84.4499C92.3563 84.267 92.525 84.5803 92.3711 84.8916C92.2361 85.1671 91.9641 85.4174 91.6182 85.6025C90.7579 86.0631 88.7693 86.2419 88.7693 84.8264C88.7693 84.6876 88.7904 84.532 88.8368 84.3637C88.9633 83.8989 89.1004 83.4446 89.2395 82.9924C89.3787 82.5402 89.5158 82.0922 89.6297 81.6632C89.7414 81.2531 89.8448 80.8387 89.9418 80.4349C90.0092 80.151 90.0704 79.8944 90.1252 79.6567C90.14 79.5957 90.1526 79.5369 90.1653 79.4801C90.2201 79.2382 90.3319 78.8764 90.102 78.6977C90.0177 78.6304 89.8954 78.5925 89.752 78.5799C89.5875 78.5652 89.3977 78.582 89.2037 78.6262C89.1236 78.643 89.0434 78.6661 88.9633 78.6914C88.3918 78.8722 87.8414 79.2403 87.7296 79.642C87.5103 80.4202 87.2784 81.2594 87.0295 82.168C86.7828 83.0639 86.555 83.9031 86.3421 84.7002" fill="#04B4B4"/>
<path fill-rule="evenodd" clip-rule="evenodd" d="M80.7242 33.5545C79.3788 33.136 78.3013 33.3169 78.1494 34.9826H80.2097C80.5302 34.9826 80.7896 35.2413 80.7896 35.5589V38.007C80.7896 38.3267 80.5302 38.5854 80.2097 38.5854H78.1874V48.3653C78.1874 48.685 77.928 48.9437 77.6075 48.9437H74.613C74.2925 48.9437 74.0331 48.685 74.0331 48.3653V38.5854H72.7467C72.4283 38.5854 72.1668 38.3267 72.1668 38.007V35.5589C72.1668 35.2392 72.4262 34.9826 72.7467 34.9826H74.0753C74.1406 34.3537 74.2714 33.7711 74.4675 33.2369C74.7248 32.5345 75.098 31.914 75.583 31.3777C76.0744 30.833 76.6374 30.4228 77.2764 30.1494C77.9111 29.8781 78.6113 29.7414 79.3767 29.7414C79.7584 29.7414 80.1886 29.7835 80.6652 29.8697C81.0363 29.937 81.4307 30.0295 81.8461 30.1473C82.5062 30.3366 82.7065 30.5049 82.4513 31.1611L81.6985 33.1002C81.4602 33.7123 81.2156 33.7059 80.7242 33.5524M54.7714 48.6387L51.1338 43.0442C50.246 41.6287 50.0478 41.7213 49.1832 41.6624V48.3632C49.1832 48.6829 48.9238 48.9416 48.6033 48.9416H45.3621C45.0436 48.9416 44.7821 48.6829 44.7821 48.3632V30.8393C44.7821 30.5196 45.0415 30.263 45.3621 30.263C48.5758 30.263 52.8967 29.4049 55.6044 31.4997C57.8545 33.239 58.0801 36.7766 56.469 39.0123C56.1295 39.4834 55.7457 39.8873 55.3134 40.2217C55.0646 40.4152 54.8031 40.5834 54.5289 40.7306L59.3475 48.0477C59.5225 48.3127 59.4487 48.6702 59.183 48.8448C59.086 48.91 58.9764 48.9395 58.8667 48.9395L55.2818 48.9416C55.0625 48.9416 54.8706 48.8196 54.7714 48.6387V48.6387ZM49.1832 34.0698V37.8892C50.6678 37.9923 53.3417 37.9334 53.1962 35.8365C53.0697 34.0425 50.5497 33.9815 49.1832 34.0698ZM30.2885 48.8322C28.4264 48.2307 27.0367 46.8741 26.3577 44.8445C25.7736 43.0989 25.7609 40.8211 26.3767 39.0817C27.3404 36.3623 29.6263 34.8248 32.4563 34.7365C32.5385 34.7344 32.6208 34.7323 32.703 34.7323C32.7853 34.7323 32.8675 34.7323 32.9498 34.7365C35.7797 34.8248 38.0657 36.3623 39.0294 39.0817C39.6473 40.8211 39.6325 43.0968 39.0484 44.8445C38.5401 46.363 37.6355 47.503 36.4335 48.2349C34.7148 49.2802 32.2159 49.4568 30.2864 48.8343L30.2885 48.8322ZM32.703 38.3225C32.0177 38.3372 31.3302 38.638 30.9042 39.2037C30.6744 39.5087 30.4993 39.8852 30.3813 40.3268C30.0481 41.5698 30.0143 43.3954 30.7208 44.529C31.1699 45.2504 31.9418 45.6059 32.7009 45.589C33.4601 45.6059 34.2319 45.2504 34.6811 44.529C35.3875 43.3954 35.3559 41.5698 35.0206 40.3268C34.9025 39.8852 34.7275 39.5108 34.4976 39.2037C34.0716 38.638 33.3842 38.3372 32.6988 38.3225H32.703ZM21.1933 48.0834C19.7973 49.2423 17.4418 49.4337 15.7568 48.8974C14.5949 48.5272 13.6797 47.7995 13.1694 46.6848C12.4186 45.0443 12.6717 42.8822 13.8125 41.4941C15.2317 39.7653 18.1545 39.0986 20.2823 39.3488C19.6707 37.9502 16.7332 38.312 15.5649 38.8903C15.2781 39.0313 14.9323 38.9135 14.791 38.6295C14.772 38.5896 14.7573 38.5496 14.7467 38.5076L14.1057 36.2024C14.0297 35.929 14.1647 35.6472 14.4135 35.5294C16.1385 34.7092 18.861 34.44 20.9824 35.0835C22.7707 35.6262 23.747 36.6273 24.2341 38.4297C24.4745 39.3215 24.5947 40.4131 24.5947 41.7023V44.4407C24.5947 45.9382 24.8499 46.8489 25.356 47.1707C25.6154 47.3368 25.6976 47.6754 25.5479 47.9404C24.9132 49.0551 23.5087 49.5305 22.332 49.0215C21.8892 48.828 21.5075 48.5062 21.1912 48.0856L21.1933 48.0834ZM20.4404 42.8002C19.5252 42.7476 18.4856 42.7602 17.7876 43.0925C16.5603 43.6772 16.478 45.5091 18.0385 45.6563C18.3527 45.6858 18.7007 45.6627 19.0191 45.5933C20.51 45.2715 20.4404 44.1063 20.4404 42.8002V42.8002ZM0.120201 46.9856L1.15772 44.4701C1.43608 43.7971 1.86206 43.9969 2.27749 44.2724C3.19692 44.8803 4.24077 45.3177 5.36264 45.3177C6.14289 45.3177 7.17197 45.0548 7.45455 44.2367C7.64856 43.6751 7.41659 42.9958 6.86198 42.4363C5.31835 40.8758 2.74142 40.5645 1.20412 38.6464C0.17503 37.3634 -0.179246 35.7503 0.10544 34.2465C1.01643 29.4512 7.63591 28.7613 10.7569 31.2557C11.1049 31.5354 10.9488 31.8698 10.8307 32.2043L9.99564 34.5746C9.93026 34.7618 9.77843 34.8943 9.59919 34.9405C9.4115 34.991 9.27022 34.9447 9.13736 34.8669C8.45833 34.4736 8.01971 34.1939 7.2268 33.9625C6.29894 33.6912 5.30992 33.6428 4.70259 34.196C4.40103 34.4715 4.26185 34.8627 4.30403 35.2581C4.50225 37.1867 8.42248 37.7357 10.4954 40.1249C12.0159 41.8769 12.1993 44.4028 11.1175 46.3168C9.14369 49.8102 3.60602 49.8649 0.501891 48.0225C0.0063272 47.728 -0.126526 47.5787 0.120201 46.9835V46.9856ZM67.9028 48.0877C66.5068 49.2465 64.1513 49.4379 62.4643 48.9016C61.3023 48.5314 60.3871 47.8037 59.8768 46.689C59.1261 45.0485 59.3791 42.8864 60.52 41.4983C61.9392 39.7695 64.862 39.1028 66.9897 39.353C66.3782 37.9544 63.4407 38.3162 62.2724 38.8945C61.9856 39.0355 61.6398 38.9177 61.4985 38.6338C61.4795 38.5938 61.4647 38.5538 61.4542 38.5118L60.8131 36.2067C60.7372 35.9332 60.8722 35.6514 61.121 35.5336C62.846 34.7134 65.5684 34.4442 67.6899 35.0877C69.4781 35.6304 70.4545 36.6315 70.9416 38.4339C71.182 39.3257 71.3022 40.4173 71.3022 41.7065V44.4449C71.3022 45.9424 71.5553 46.8531 72.0635 47.1749C72.3229 47.341 72.4051 47.6796 72.2554 47.9446C71.6185 49.0593 70.2162 49.5347 69.0395 49.0257C68.5945 48.8322 68.2149 48.5104 67.8986 48.0898L67.9028 48.0877ZM67.15 42.8044C66.2348 42.7518 65.1952 42.7644 64.4972 43.0968C63.5883 43.53 63.3078 44.6489 63.8561 45.2567C64.3495 45.8036 65.5958 45.7783 66.1989 45.4734C66.9961 45.0696 67.1584 44.1021 67.1479 42.8044H67.15ZM107.105 43.4627H99.2162C99.4629 44.5837 100.372 45.2378 101.426 45.4755C102.62 45.7447 103.691 45.4839 104.762 44.9286C105.298 44.651 105.637 44.3797 105.996 45.059L106.922 46.8741C107.278 47.5324 106.962 47.7806 106.384 48.1318C104.823 49.0846 102.445 49.4169 100.365 49.0741C98.6531 48.7901 97.2381 48.0919 96.2048 46.6659C94.6907 44.5774 94.4693 41.5088 95.3676 39.1574C97.6641 33.1444 106.428 33.3652 108.231 39.0649C108.556 40.0913 108.676 41.4941 108.41 42.6025C108.2 43.4774 108.022 43.4627 107.103 43.4627H107.105ZM99.4545 40.0555H104.273C103.651 37.763 100.33 37.8198 99.4545 40.0555ZM89.7372 48.0898C88.3412 49.2486 85.9857 49.44 84.3008 48.9037C83.1388 48.5335 82.2236 47.8058 81.7133 46.6911C80.9625 45.0506 81.2156 42.8885 82.3543 41.5004C83.7757 39.7716 86.6963 39.1049 88.8241 39.3551C88.2125 37.9565 85.275 38.3183 84.1067 38.8967C83.8199 39.0376 83.4741 38.9198 83.3328 38.6359C83.3138 38.5959 83.2991 38.5559 83.2885 38.5139L82.6475 36.2088C82.5715 35.9353 82.7065 35.6535 82.9553 35.5357C84.6803 34.7155 87.4028 34.4463 89.5242 35.0899C91.3125 35.6325 92.2888 36.6336 92.776 38.436C93.0164 39.3278 93.1366 40.4194 93.1366 41.7086V44.447C93.1366 45.9445 93.3896 46.8552 93.8978 47.177C94.1593 47.3431 94.2394 47.6817 94.0897 47.9467C93.4529 49.0614 92.0505 49.5368 90.8759 49.0278C90.431 48.8343 90.0514 48.5125 89.7351 48.0919L89.7372 48.0898ZM88.9844 42.8065C88.0691 42.7539 87.0295 42.7665 86.3315 43.0989C85.1042 43.6835 85.022 45.5154 86.5825 45.6627C86.8967 45.6921 87.2446 45.669 87.563 45.5996C89.054 45.2778 88.9844 44.1126 88.9844 42.8065V42.8065ZM14.6012 32.1496C14.7277 31.7479 14.9323 31.3693 15.2001 31.0433C15.489 30.6921 15.8538 30.3997 16.2693 30.2083C16.6404 30.038 17.0305 29.9601 17.4333 29.9622C17.8487 29.9664 18.2726 30.0569 18.6965 30.2209C19.1119 30.3808 19.4578 30.5911 19.7867 30.7867C20.179 31.0223 20.5417 31.241 20.936 31.3083C21.634 31.4303 22.0979 31.1001 22.4712 30.5448C22.7833 30.08 23.5319 30.3471 23.5741 30.8435C23.591 31.0601 23.3864 31.4871 23.2789 31.6974C22.9436 32.3515 22.4775 32.8499 21.9082 33.1444C21.2502 33.4851 20.4636 33.5482 19.5969 33.2538C19.5105 33.2243 19.4198 33.1886 19.3228 33.1486C19.1098 33.0582 18.8968 32.953 18.6733 32.8436C17.6526 32.341 16.4169 31.731 15.5122 32.7974C15.2128 33.1528 14.6708 33.0497 14.5569 32.5933C14.519 32.4461 14.5527 32.3052 14.6012 32.1496V32.1496ZM110.899 30.223L113.843 29.5164C114.153 29.4427 114.465 29.6341 114.537 29.9433C114.547 29.9875 114.551 30.0316 114.551 30.0758H114.553V44.4659C114.553 45.1642 114.65 45.7068 114.846 46.0917C115.011 46.4198 115.256 46.6343 115.574 46.7374C115.878 46.8341 116.044 47.158 115.947 47.4609C115.937 47.4924 115.924 47.5219 115.909 47.5513C115.625 48.0961 115.235 48.5062 114.739 48.7838C114.726 48.7901 114.716 48.7964 114.703 48.8027C114.224 49.0614 113.663 49.1897 113.02 49.1897C112.143 49.1897 111.477 48.8743 111.019 48.2412C110.606 47.6691 110.399 46.851 110.399 45.7867V30.793C110.399 30.5028 110.614 30.2609 110.895 30.2209L110.899 30.223Z" fill="#1C468C"/>
<path d="M108.676 62.8143C108.537 63.0435 108.292 63.2328 107.947 63.38C107.599 63.5252 107.238 63.5988 106.858 63.5988C105.545 63.5988 104.554 62.9279 104.566 61.5292C104.575 60.7531 104.897 60.1138 105.547 59.6868C106.388 59.1337 107.632 58.9928 108.514 59.2031C108.514 57.7435 106.496 57.8844 105.589 58.3345L105.256 57.1377C106.175 56.7024 107.691 56.5573 108.748 57.0536C109.95 57.6173 110.068 58.8392 110.068 60.0465V61.4556C110.068 62.3327 110.245 62.8858 110.597 63.1108C110.135 63.9206 108.957 63.7018 108.678 62.8185M108.526 60.3641C108.05 60.2736 107.415 60.2484 106.917 60.4187C105.743 60.8204 105.804 62.3789 107.141 62.3789C108.065 62.3789 108.526 61.912 108.526 60.9824V60.3619V60.3641ZM101.595 58.6689C101.595 58.4607 101.584 58.2693 101.565 58.0968C101.502 57.5458 101.336 57.1861 101.066 57.0136C101.325 56.5573 101.816 56.429 102.242 56.5615C103.025 56.8033 103.143 57.6025 103.16 58.3324C103.183 59.3692 103.162 60.4187 103.162 61.4556C103.162 62.3327 103.339 62.8858 103.693 63.1108C103.432 63.5672 102.942 63.6955 102.516 63.563C101.787 63.3359 101.635 62.625 101.605 61.9415C101.557 60.873 101.597 59.7436 101.597 58.6689H101.595ZM102.39 54.2185C102.639 54.2185 102.85 54.3068 103.025 54.4814C103.2 54.656 103.288 54.8663 103.288 55.1124C103.288 55.3584 103.2 55.5709 103.025 55.7433C102.85 55.9179 102.639 56.0062 102.39 56.0062C102.141 56.0062 101.932 55.9179 101.757 55.7433C101.582 55.5687 101.494 55.3584 101.494 55.1124C101.494 54.8663 101.582 54.656 101.757 54.4814C101.932 54.3068 102.145 54.2185 102.39 54.2185ZM99.8615 57.4027L99.2014 58.549C98.4359 57.8381 97.0357 57.8465 96.3567 58.6668C95.5237 59.6742 95.6819 61.6302 96.8459 62.1371C97.6599 62.4904 98.6742 62.3284 99.3448 61.748L99.91 62.9573C98.514 63.8259 96.363 63.9479 95.1357 62.7091C93.8894 61.4556 93.9674 58.9591 95.22 57.7182C96.3714 56.5741 98.5561 56.4163 99.8594 57.4006L99.8615 57.4027ZM91.9535 54.2185L90.8443 55.6424C90.4289 56.0777 90.2011 56.0188 89.3766 56.0188L90.0135 54.9252C90.4078 54.2479 90.3698 54.2185 90.9603 54.2185H91.9514H91.9535ZM75.3932 58.3239C74.4021 57.6593 73.3857 58.2545 73.1622 59.2893C73.12 59.4891 73.1179 59.6616 73.1179 59.8614V63.4747H71.5764V58.9107C71.5764 58.4081 71.5025 57.6257 71.0323 57.3439C71.5236 56.4836 72.7446 56.7781 72.9977 57.7981C73.4447 56.6603 75.1444 56.4815 76.0449 57.0031L75.3911 58.3239H75.3932ZM91.905 62.8185C91.7659 63.0477 91.5212 63.237 91.1754 63.3843C90.8274 63.5294 90.4668 63.603 90.0873 63.603C88.7756 63.603 87.7824 62.9321 87.795 61.5334C87.8013 60.7574 88.1261 60.118 88.7735 59.691C89.6149 59.1379 90.8612 58.997 91.7405 59.2073C91.7405 57.7477 89.7224 57.8886 88.8157 58.3387L88.4825 57.1419C89.4019 56.7066 90.9181 56.5615 91.9746 57.0578C93.1766 57.6215 93.2947 58.8434 93.2947 60.0507V61.4598C93.2947 62.3369 93.4719 62.89 93.8261 63.115C93.3643 63.9248 92.1855 63.706 91.9071 62.8227L91.905 62.8185ZM91.7532 60.3641C91.2766 60.2736 90.6419 60.2484 90.1442 60.4187C88.9717 60.8204 89.0308 62.3789 90.3677 62.3789C91.2914 62.3789 91.7532 61.912 91.7532 60.9824V60.3619V60.3641ZM68.4638 62.8185C68.3246 63.0477 68.08 63.237 67.732 63.3843C67.3841 63.5294 67.0235 63.603 66.6439 63.603C65.3322 63.603 64.3411 62.9321 64.3517 61.5334C64.3601 60.7574 64.6827 60.118 65.3301 59.691C66.1715 59.1379 67.4178 58.997 68.2972 59.2073C68.2972 57.7477 66.2791 57.8886 65.3723 58.3387L65.0391 57.1419C65.9586 56.7066 67.4748 56.5615 68.5292 57.0578C69.7312 57.6215 69.8493 58.8434 69.8493 60.0507V61.4598C69.8493 62.3369 70.0264 62.89 70.3786 63.115C69.9167 63.9248 68.7379 63.706 68.4596 62.8227L68.4638 62.8185ZM68.312 60.3641C67.8354 60.2736 67.2006 60.2484 66.7029 60.4187C65.5284 60.8204 65.5895 62.3789 66.9265 62.3789C67.8501 62.3789 68.312 61.912 68.312 60.9824V60.3619V60.3641ZM77.0086 58.9907C77.0086 58.5048 76.9095 57.6215 76.4455 57.346C76.707 56.8896 77.1963 56.7592 77.6222 56.8938C78.0124 57.0158 78.2359 57.2744 78.3645 57.5941C79.324 56.3511 81.1629 56.5446 82.0317 57.4827C83.0292 56.3596 85.2371 56.4773 85.9688 57.9937C86.1923 58.4564 86.2113 58.8603 86.2113 59.3566V63.4768H84.6698V59.3482C84.6698 57.5079 82.3839 57.8465 82.3839 58.9234V63.4768H80.8423V59.1063C80.8423 57.796 79.1448 57.7477 78.5564 58.7404V63.4768H77.0149V62.2632L77.0065 58.9928L77.0086 58.9907ZM60.4356 62.2759C60.4356 62.7617 60.3365 63.6451 59.8726 63.9206C60.1341 64.377 60.6233 64.5053 61.0493 64.3728C61.8317 64.1309 61.9498 63.3317 61.9666 62.6019C61.9814 61.9877 61.9793 61.3673 61.9751 60.7468V58.1431H63.3141V56.8832H61.9497C61.9497 55.6339 62.5718 55.2049 63.7675 55.6003L64.223 54.4288C62.0974 53.7747 60.5284 54.6202 60.4335 56.8832H59.474V58.1431H60.4335V61.9898H60.4356V62.2738V62.2759ZM111.369 63.0519L111.917 61.8237C112.457 62.2569 114.125 62.8185 114.383 61.851C114.604 61.016 113.088 60.6164 112.523 60.2968C111.664 59.8109 111.108 59.0012 111.428 58.0106C111.601 57.4764 112.031 57.1188 112.615 56.919C113.564 56.593 114.756 56.7907 115.601 57.2198L115.159 58.4102C114.906 58.1956 114.351 57.9916 113.862 57.9706C113.478 57.9538 112.972 58.0695 112.946 58.5364C112.936 58.7299 113.027 58.936 113.214 59.079C113.969 59.6553 115 59.6637 115.625 60.4713C116.122 61.1149 116.114 61.973 115.677 62.6292C114.745 64.0278 112.66 63.7355 111.371 63.0498L111.369 63.0519Z" fill="#04B4B4"/>
<path fill-rule="evenodd" clip-rule="evenodd" d="M55.1173 24.1721C52.0026 21.0489 47.066 16.6763 43.2491 13.6771C39.3858 10.6401 35.474 10.1732 32.7051 10.699C34.4786 18.7732 41.6907 24.8178 50.3177 24.8178C51.9794 24.8178 53.5905 24.5928 55.1194 24.1721M57.9916 23.11H57.9937C61.2876 21.562 64.0374 19.0487 65.8721 15.9339C69.4486 8.87973 65.2163 2.21678 57.9937 0H57.9916C50.7669 2.21888 46.5366 8.87973 50.1131 15.9339C51.9499 19.0466 54.6976 21.562 57.9916 23.11V23.11ZM60.8658 24.1721C63.9805 21.0489 68.9172 16.6763 72.7341 13.6771C76.5974 10.6401 80.5092 10.1732 83.278 10.699C81.5045 18.7732 74.2925 24.8178 65.6654 24.8178C64.0037 24.8178 62.3926 24.5928 60.8637 24.1721H60.8658Z" fill="#04B4B4"/>
</g>
<defs>
<clipPath id="clip0_1_2">
<rect width="116" height="86" fill="white"/>
</clipPath>
</defs>
</svg>
