<svg width="101" height="101" viewBox="0 0 101 101" fill="none" xmlns="http://www.w3.org/2000/svg">
<g clip-path="url(#clip0_1_69)">
<path d="M53.96 100.86H46.87C46.59 100.79 46.31 100.71 46.02 100.67C43.98 100.37 41.92 100.19 39.91 99.76C30.32 97.7 22.01 93.2 15.04 86.31C7.47001 78.82 2.67001 69.83 0.780005 59.33C0.460005 57.57 0.250005 55.78 -0.00999451 54.01C-0.00999451 51.65 -0.00999451 49.28 -0.00999451 46.92C0.200005 45.37 0.360005 43.8 0.630005 42.26C2.90001 29.48 9.04 18.95 19.22 10.94C31.17 1.54001 44.8 -1.82999 59.72 0.930007C73.5 3.48001 84.37 10.82 92.23 22.4C99.68 33.38 102.24 45.57 100.16 58.66C98.64 68.21 94.56 76.63 88.11 83.85C80.38 92.5 70.81 97.94 59.38 100.06C57.59 100.39 55.77 100.6 53.96 100.86V100.86ZM50.43 94.96C74.94 94.93 94.99 74.86 94.92 50.42C94.86 25.93 74.93 6.01001 50.44 5.96001C25.98 5.92001 5.92001 25.96 5.90001 50.45C5.89001 74.92 25.96 94.99 50.42 94.96H50.43Z" fill="#334F92"/>
<path d="M47.46 41.56C47.46 38.67 47.46 35.79 47.46 32.9C47.46 31.07 48.7 29.79 50.41 29.79C52.13 29.79 53.35 31.08 53.35 32.91C53.35 38.03 53.37 43.15 53.34 48.26C53.34 48.94 53.55 49.41 54.02 49.88C59.33 55.15 64.61 60.45 69.9 65.74C71.09 66.93 71.39 68.12 70.83 69.38C69.99 71.29 67.56 71.74 65.98 70.23C64.65 68.96 63.38 67.64 62.08 66.34C57.65 61.91 53.23 57.47 48.77 53.06C47.85 52.15 47.4 51.15 47.43 49.83C47.49 47.08 47.45 44.32 47.45 41.56H47.46Z" fill="#334F92"/>
<path d="M47.46 17.98C47.46 16.97 47.44 15.95 47.46 14.94C47.5 13.29 48.8 12.06 50.44 12.07C52.03 12.08 53.32 13.31 53.34 14.92C53.37 16.95 53.37 18.98 53.34 21.01C53.32 22.66 52 23.9 50.36 23.88C48.77 23.87 47.5 22.63 47.45 21.03C47.42 20.02 47.45 19 47.45 17.99L47.46 17.98Z" fill="#334F92"/>
<path d="M17.85 53.4C16.87 53.4 15.89 53.42 14.9 53.4C13.25 53.36 12.01 52.07 12.01 50.43C12.01 48.8 13.27 47.53 14.94 47.51C16.94 47.49 18.93 47.48 20.93 47.51C22.59 47.53 23.83 48.83 23.82 50.47C23.82 52.1 22.56 53.36 20.89 53.4C19.88 53.42 18.86 53.4 17.85 53.4Z" fill="#334F92"/>
<path d="M82.99 47.51C83.97 47.51 84.95 47.49 85.94 47.51C87.59 47.55 88.83 48.85 88.81 50.49C88.79 52.08 87.57 53.37 85.96 53.39C83.93 53.42 81.9 53.42 79.87 53.39C78.22 53.37 76.98 52.05 77 50.41C77.01 48.82 78.25 47.55 79.85 47.5C80.9 47.47 81.94 47.5 82.99 47.5V47.51Z" fill="#334F92"/>
<path d="M53.36 83.04C53.36 84.02 53.38 85 53.36 85.99C53.31 87.63 52 88.87 50.37 88.85C48.78 88.83 47.5 87.59 47.48 85.99C47.45 83.96 47.45 81.93 47.48 79.9C47.5 78.29 48.78 77.06 50.37 77.04C52.01 77.02 53.32 78.25 53.36 79.9C53.39 80.95 53.36 81.99 53.36 83.04Z" fill="#334F92"/>
<path d="M78.43 25.39C78.43 27.05 77.07 28.41 75.44 28.38C73.87 28.35 72.51 26.97 72.5 25.41C72.5 23.78 73.87 22.43 75.52 22.45C77.15 22.47 78.43 23.77 78.43 25.39V25.39Z" fill="#334F92"/>
<path d="M75.51 78.46C73.84 78.48 72.49 77.15 72.5 75.5C72.5 73.92 73.85 72.56 75.44 72.54C77.08 72.51 78.43 73.85 78.42 75.52C78.42 77.17 77.16 78.44 75.51 78.46V78.46Z" fill="#334F92"/>
<path d="M22.41 25.37C22.41 23.73 23.69 22.46 25.34 22.45C27.01 22.45 28.36 23.78 28.34 25.42C28.32 27.01 26.97 28.35 25.39 28.37C23.75 28.39 22.41 27.04 22.42 25.37H22.41Z" fill="#334F92"/>
<path d="M22.4 75.55C22.38 73.9 23.73 72.52 25.36 72.53C26.93 72.53 28.3 73.89 28.33 75.47C28.36 77.1 27 78.46 25.35 78.46C23.72 78.46 22.42 77.17 22.4 75.55Z" fill="#334F92"/>
</g>
<defs>
<clipPath id="clip0_1_69">
<rect width="100.86" height="100.86" fill="white"/>
</clipPath>
</defs>
</svg>
