<svg width="76" height="102" viewBox="0 0 76 102" fill="none" xmlns="http://www.w3.org/2000/svg">
<g clip-path="url(#clip0_1_48)">
<path d="M53.4298 0C53.9801 0.469982 54.5579 0.898496 55.067 1.40995C61.6984 8.06573 68.3092 14.7422 74.9406 21.3911C75.6629 22.1168 76 22.8909 76 23.9415C75.9794 46.9429 75.9862 69.9375 75.9862 92.939C75.9862 97.6388 73.6611 100.659 69.1209 101.855C69.0315 101.882 68.9489 101.952 68.8664 102H7.11984C6.90659 101.924 6.69334 101.841 6.47321 101.786C2.6966 100.846 0.00687907 97.4937 0 93.6302C0 65.2101 0 36.7899 0 8.36983C0 5.90934 0.997466 3.88427 2.75163 2.20477C3.99674 1.0229 5.53765 0.469982 7.11984 0C22.5565 0 37.9931 0 53.4298 0ZM50.6644 4.2644C50.2104 4.2644 49.887 4.2644 49.5637 4.2644C36.0739 4.2644 22.584 4.2644 9.09413 4.2644C5.84721 4.2644 4.24439 5.8886 4.23751 9.16466C4.23751 37.0526 4.23751 64.9474 4.23751 92.8353C4.23751 96.1114 5.84033 97.7287 9.10101 97.7287C28.3624 97.7287 47.6238 97.7287 66.8852 97.7287C70.1459 97.7287 71.7487 96.1183 71.7487 92.8353C71.7487 70.7531 71.7487 48.6777 71.7487 26.5955C71.7487 26.243 71.7212 25.8905 71.7006 25.4896C67.5731 25.4896 63.5489 25.4896 59.5246 25.4896C58.933 25.4896 58.3277 25.4965 57.7498 25.3929C53.4435 24.598 50.6644 21.2045 50.6575 16.7604C50.6575 12.6481 50.6575 8.5288 50.6575 4.2644H50.6644ZM54.9432 7.69251C54.9432 10.8718 54.8537 14.1202 54.9707 17.3617C55.0532 19.684 56.828 21.1769 59.2976 21.2183C61.6709 21.2598 64.0373 21.2321 66.4106 21.2321C67.0916 21.2321 67.7726 21.2321 68.3917 21.2321C63.8859 16.6982 59.4146 12.1919 54.9432 7.69942V7.69251Z" fill="#334F92"/>
<path d="M38.0206 50.9931C30.378 50.9931 22.7285 50.9931 15.0858 50.9931C13.8338 50.9931 13.0014 50.4402 12.7263 49.4449C12.3892 48.2216 13.1734 46.9913 14.4392 46.7978C14.8588 46.7356 15.2922 46.7356 15.7187 46.7356C30.5844 46.7356 45.4432 46.7356 60.3088 46.7356C60.6046 46.7356 60.9004 46.7287 61.1962 46.7494C62.5514 46.8531 63.3769 47.7378 63.315 48.9957C63.26 50.1706 62.3588 50.9931 61.0587 50.9931C53.3816 51 45.6977 50.9931 38.0206 50.9931V50.9931Z" fill="#334F92"/>
<path d="M37.8899 63.7448C30.2748 63.7448 22.6665 63.7448 15.0514 63.7448C13.5655 63.7448 12.6437 62.8878 12.6644 61.5746C12.685 60.5586 13.366 59.7292 14.3635 59.5633C14.7831 59.4942 15.2165 59.4873 15.643 59.4873C30.5362 59.4873 45.4363 59.4873 60.3295 59.4873C60.6597 59.4873 60.9899 59.4873 61.3201 59.515C62.5927 59.6463 63.3838 60.5517 63.3081 61.775C63.2393 62.9154 62.3519 63.7379 61.1206 63.7379C57.2958 63.7517 53.4779 63.7379 49.6531 63.7379C45.7321 63.7379 41.811 63.7379 37.8899 63.7379V63.7448Z" fill="#334F92"/>
<path d="M37.9931 76.4965C30.3505 76.4965 22.7009 76.4965 15.0583 76.4965C13.5793 76.4965 12.6506 75.6395 12.6781 74.3263C12.6988 73.3103 13.3798 72.4809 14.3773 72.3151C14.7969 72.246 15.2303 72.239 15.6568 72.239C30.55 72.239 45.45 72.239 60.3432 72.239C60.6046 72.239 60.8729 72.239 61.1343 72.2529C62.5101 72.3427 63.3494 73.1859 63.3219 74.4369C63.2943 75.6602 62.3863 76.4965 61.0311 76.5034C57.2752 76.5104 53.5192 76.5034 49.7632 76.5034C45.8421 76.5034 41.9211 76.5034 38 76.5034L37.9931 76.4965Z" fill="#334F92"/>
<path d="M16.723 38.2414C16.0695 38.2414 15.416 38.2621 14.7556 38.2414C13.593 38.1999 12.7332 37.3774 12.6713 36.2716C12.6025 35.0828 13.3592 34.1152 14.5699 34.0392C15.9801 33.9493 17.4041 34.0184 18.8211 33.9701C20.3001 33.9148 21.1669 32.9817 21.0431 31.6478C20.9537 30.7009 20.3277 30.0098 19.3577 29.837C18.7455 29.7264 18.1057 29.7195 17.5004 29.5674C14.9413 28.9385 13.0083 26.7614 12.6919 24.2248C12.3548 21.5086 13.6756 19.0205 16.1177 17.7004C16.4135 17.5414 16.7505 17.2235 16.8331 16.9125C17.1839 15.62 17.7686 14.9772 18.8211 14.8943C19.9356 14.8114 20.6028 15.3228 21.1119 16.6567C21.1463 16.7466 21.2013 16.8295 21.277 16.9608C21.8823 16.9608 22.5083 16.9332 23.1343 16.9608C24.4138 17.023 25.3012 17.8801 25.3287 19.0619C25.3563 20.2922 24.4757 21.2252 23.1481 21.2736C21.8273 21.3151 20.5065 21.2736 19.1926 21.2874C17.8374 21.3013 16.9913 22.0615 16.9432 23.271C16.895 24.5151 17.748 25.3929 19.1032 25.4965C22.3639 25.7385 24.6133 27.6391 25.2531 30.694C25.824 33.424 24.4345 36.1403 21.7379 37.6262C21.4902 37.7645 21.2357 38.0409 21.1669 38.3036C20.8161 39.6375 20.1832 40.3217 19.1307 40.3978C18.1264 40.4738 17.3421 39.8241 16.8881 38.5455C16.8537 38.4556 16.8056 38.3727 16.7437 38.2483L16.723 38.2414Z" fill="#334F92"/>
<path d="M48.5594 38.2483C44.4388 38.2483 40.3182 38.2483 36.2046 38.2483C34.7324 38.2483 33.8313 37.4811 33.79 36.2094C33.7419 34.8893 34.6293 33.9977 36.1358 33.9977C44.4044 33.977 52.6799 33.977 60.9486 33.9977C62.4689 33.9977 63.3563 34.8755 63.3219 36.1956C63.2875 37.4535 62.3725 38.2483 60.9211 38.2483C56.8005 38.2483 52.6799 38.2483 48.5663 38.2483H48.5594Z" fill="#334F92"/>
<path d="M27.3718 89.2483C23.2857 89.2483 19.1995 89.2483 15.1133 89.2483C13.6068 89.2483 12.6713 88.4327 12.6713 87.1333C12.6713 85.8271 13.5587 84.9977 15.0996 84.9908C23.3407 84.977 31.5749 84.977 39.8161 84.9908C41.3363 84.9908 42.2306 85.8616 42.21 87.1679C42.1894 88.4742 41.2813 89.2414 39.7335 89.2483C35.613 89.2483 31.4924 89.2483 27.3718 89.2483V89.2483Z" fill="#334F92"/>
</g>
<defs>
<clipPath id="clip0_1_48">
<rect width="76" height="102" fill="white"/>
</clipPath>
</defs>
</svg>
