<svg width="73" height="102" viewBox="0 0 73 102" fill="none" xmlns="http://www.w3.org/2000/svg">
<g clip-path="url(#clip0_1_63)">
<path d="M8.83997 102C7.61228 101.511 6.28637 101.185 5.18145 100.508C0.802683 97.8085 -0.3759 92.2061 2.22681 87.7781C10.3787 73.9476 18.4569 60.0763 26.5515 46.2131C26.7233 45.9196 26.8216 45.5281 26.8216 45.1856C26.8461 42.992 26.8216 40.8065 26.8461 38.6129C26.8461 38.0991 26.6579 37.879 26.2241 37.6506C23.6132 36.3214 22.32 33.6059 22.9748 30.9474C23.6868 28.0769 25.9867 26.3073 29.015 26.3073C34.245 26.3073 39.475 26.3073 44.7049 26.3073C47.6677 26.3073 49.9594 28.1014 50.6633 30.9229C51.3345 33.5977 50.0577 36.3214 47.4468 37.6343C46.9475 37.8871 46.8002 38.1562 46.8084 38.6863C46.8329 40.8065 46.792 42.9349 46.8411 45.0552C46.8493 45.5526 47.0621 46.0827 47.324 46.5149C55.3122 60.2149 63.3167 73.9068 71.3213 87.5987C73.4165 91.1868 73.4083 94.7178 71.0266 98.151C69.6843 100.084 67.7691 101.233 65.4775 101.788C65.2565 101.845 65.0437 101.927 64.8227 102H8.83997V102ZM30.832 38.2785C30.832 40.9044 30.8566 43.4242 30.8156 45.944C30.8075 46.5149 30.6683 47.1509 30.39 47.6321C22.1645 61.7399 13.9144 75.8232 5.66434 89.9146C5.02594 91.0074 4.69037 92.1735 4.91954 93.4375C5.43517 96.2672 7.57954 98.0042 10.5833 98.0123C28.082 98.0123 45.5725 98.0123 63.0712 98.0042C63.7587 98.0042 64.4707 97.89 65.1255 97.678C68.5058 96.5689 69.7826 92.9645 67.9083 89.7515C59.9528 76.1086 51.9892 62.4656 43.9847 48.8471C43.158 47.4445 42.7324 46.0745 42.8143 44.4517C42.9125 42.413 42.8388 40.358 42.8388 38.2785H30.832V38.2785ZM36.8231 34.2582C39.4504 34.2582 42.0777 34.2827 44.7049 34.2501C45.9081 34.2338 46.792 33.3612 46.8166 32.2929C46.8411 31.2247 45.9572 30.2869 44.7622 30.2869C39.475 30.2624 34.1877 30.2706 28.9004 30.2869C28.0738 30.2869 27.4272 30.6783 27.0507 31.4285C26.3714 32.7904 27.3617 34.2338 29.0396 34.2582C31.6341 34.2909 34.2286 34.2664 36.8231 34.2582V34.2582Z" fill="#334F92"/>
<path d="M36.8395 8.87241C36.8559 3.92246 40.9073 -0.024458 45.949 6.30364e-06C50.8679 0.0244706 54.8375 4.04478 54.8293 9.00288C54.8211 13.9691 50.7861 17.9405 45.7689 17.9242C40.8009 17.9079 36.8232 13.8794 36.8395 8.87241V8.87241ZM45.7853 3.98769C43.0926 4.02031 40.8418 6.28734 40.8418 8.96211C40.8418 11.6695 43.1744 13.9773 45.8917 13.9447C48.5844 13.9121 50.8352 11.6369 50.8352 8.96211C50.8352 6.24657 48.5026 3.94692 45.7853 3.98769V3.98769Z" fill="#334F92"/>
<path d="M25.3401 22.3033C21.7144 22.3033 18.8334 19.4165 18.8497 15.7877C18.8579 12.224 21.7471 9.36984 25.3401 9.36984C28.9741 9.36984 31.8469 12.2566 31.8387 15.8855C31.8305 19.4492 28.9332 22.3033 25.3483 22.3115L25.3401 22.3033ZM25.3156 13.3494C23.9979 13.3657 22.8275 14.54 22.8438 15.8529C22.8602 17.1658 24.047 18.3319 25.3565 18.3238C26.6742 18.3075 27.8446 17.1332 27.8283 15.8203C27.8201 14.5074 26.6333 13.3412 25.3156 13.3575V13.3494Z" fill="#334F92"/>
<path d="M14.9211 90.0451H16.0097C19.8401 90.0451 23.6705 90.0451 27.5009 90.0451C28.9741 90.0451 29.8335 90.7953 29.8335 92.043C29.8335 93.2825 28.9659 94.0246 27.4845 94.0246C23.1221 94.0246 18.7515 94.0328 14.3891 94.0246C11.3281 94.0165 9.59296 91.2112 11.1071 88.5528C13.8571 83.7088 16.7054 78.9138 19.5454 74.1188C19.7992 73.6947 20.2657 73.3441 20.7158 73.0994C24.1125 71.2402 27.771 70.971 31.4786 71.6642C35.4563 72.4063 39.3931 73.4093 43.3627 74.2085C46.0963 74.7549 48.7809 74.6325 51.3345 73.3033C52.4967 72.6999 53.4952 73.0016 54.15 74.1188C56.9818 78.922 59.8219 83.717 62.5719 88.5609C64.0779 91.2112 62.3264 94.0083 59.2572 94.0165C54.8948 94.0246 50.5242 94.0165 46.1618 94.0165C44.6967 94.0165 43.8292 93.2662 43.8374 92.0185C43.8374 90.779 44.7049 90.0451 46.1863 90.0451C50.3196 90.0451 54.4446 90.0451 58.7906 90.0451C56.3353 85.8454 53.9617 81.7761 51.5391 77.6254C48.7563 78.6447 45.9081 78.7262 43.068 78.2288C40.5553 77.7884 38.0754 77.1361 35.5791 76.5734C32.5344 75.8802 29.4979 75.0647 26.3223 75.4806C25.7985 75.5459 25.2747 75.6437 24.7509 75.7579C23.4986 76.0352 22.6147 76.6712 21.9435 77.87C19.8728 81.613 17.6548 85.2745 15.4941 88.9687C15.314 89.2785 15.1585 89.5966 14.913 90.0451H14.9211Z" fill="#334F92"/>
<path d="M36.8313 94.0246C35.6937 94.0246 34.8261 93.1439 34.8343 92.0104C34.8425 90.885 35.7346 90.0288 36.8723 90.0451C37.9608 90.0696 38.8038 90.9177 38.8202 92.0022C38.8284 93.1358 37.9608 94.0165 36.8231 94.0165L36.8313 94.0246Z" fill="#334F92"/>
</g>
<defs>
<clipPath id="clip0_1_63">
<rect width="72" height="102" fill="white" transform="translate(0.859985)"/>
</clipPath>
</defs>
</svg>
