<svg width="65" height="103" viewBox="0 0 65 103" fill="none" xmlns="http://www.w3.org/2000/svg">
<g clip-path="url(#clip0_133_234)">
<path d="M43.3037 0C44.8319 1.49133 46.3727 2.97006 47.8834 4.47651C49.8726 6.45907 51.8392 8.4643 53.8109 10.4645C54.9408 11.6132 54.9258 12.2606 54.0189 13.6185C50.4588 18.9565 46.9314 24.3198 43.3964 29.6754C43.3438 29.7535 43.3262 29.8568 43.2711 30.0055C44.3334 30.9854 44.5188 32.2651 44.4962 33.6557C44.4536 36.132 44.4837 38.6108 44.4837 41.0997C45.8917 41.3466 47.2821 41.4801 48.6124 41.8429C57.386 44.226 62.7398 49.9444 64.6113 58.8521C65.3954 62.588 64.947 66.3113 63.6968 69.9288C60.8709 78.1059 58.0774 86.2931 55.2414 94.4652C53.3324 99.9644 49.0433 102.992 43.2561 102.997C36.0859 103 28.9183 103 21.7481 102.997C16.1563 102.997 11.8747 100.279 9.99573 95.032C6.80899 86.1344 3.66484 77.2141 0.856396 68.1931C-2.10737 58.6707 2.86565 47.8233 11.8096 43.5206C13.1524 42.8757 14.5629 42.324 15.9984 41.9311C17.429 41.5381 18.9296 41.397 20.5105 41.1249C20.5105 38.6663 20.5405 36.1597 20.4979 33.6557C20.4729 32.2651 20.6558 30.9829 21.7756 29.9576C21.2069 29.0759 20.6783 28.232 20.1272 27.4007C17.0231 22.7226 13.9165 18.0446 10.8024 13.3716C10.0809 12.2909 10.116 11.5553 11.0455 10.6106C14.2823 7.32313 17.5292 4.04322 20.7785 0.768337C21.0566 0.483675 21.3848 0.254433 21.693 0C28.8957 0 36.101 0 43.3037 0V0ZM9.36189 82.731C9.76023 82.527 10.0809 82.3607 10.4041 82.197C14.385 80.1716 18.5839 79.0732 23.0684 79.0279C27.3048 78.9851 31.3058 79.9222 35.1915 81.5621C41.2093 84.1039 47.4875 85.1947 54.0164 84.8169C54.6527 84.7791 55.011 84.5977 55.2389 83.9301C56.9476 78.8667 58.7839 73.8435 60.4274 68.7574C62.81 61.3813 61.2717 54.8542 55.7149 49.4507C52.3077 46.138 48.0713 44.6668 43.3513 44.6542C36.2488 44.6341 29.1462 44.6416 22.0412 44.6568C21.0767 44.6568 20.1096 44.7248 19.1526 44.8331C9.07628 45.9843 1.85852 55.809 3.82267 65.8452C4.26861 68.1251 5.13545 70.3268 5.87201 72.5436C6.99939 75.9293 8.18189 79.2949 9.36439 82.7285L9.36189 82.731ZM10.5319 86.1394C11.4363 88.7417 12.268 91.3439 13.2426 93.8908C14.6656 97.6116 17.5016 99.5034 21.3974 99.5488C28.7955 99.6344 36.1936 99.6118 43.5918 99.5589C47.5251 99.5311 50.4688 97.3924 51.8468 93.717C52.443 92.1224 52.9641 90.5 53.5103 88.8878C53.5679 88.7215 53.5704 88.5376 53.608 88.3134C53.3249 88.3134 53.1245 88.3084 52.9265 88.3134C46.1672 88.5578 39.6936 87.2806 33.4729 84.6355C29.289 82.857 24.9574 82.0836 20.4153 82.6731C16.9079 83.1265 13.6359 84.2299 10.5369 86.1419L10.5319 86.1394ZM24.0254 41.1577H40.9211V32.6757H24.0254V41.1577ZM15.4372 13.7469C18.7643 18.9036 21.961 23.8688 25.1728 28.824C25.2806 28.9877 25.5286 29.154 25.714 29.159C27.0268 29.1867 28.342 29.1741 29.6523 29.1741C29.6623 28.9877 29.6874 28.9121 29.6648 28.8592C27.4727 23.9923 25.2806 19.1228 23.0609 14.2684C22.9531 14.0316 22.5874 13.7721 22.3368 13.7671C20.1146 13.7293 17.8899 13.7444 15.4397 13.7444L15.4372 13.7469ZM49.4943 13.7469C47.242 13.7469 45.125 13.7822 43.0106 13.7268C42.3116 13.7092 42.0235 13.9888 41.7629 14.5732C39.7186 19.1429 37.6467 23.6975 35.5874 28.2597C35.4696 28.5217 35.3819 28.7963 35.2366 29.1792C36.4793 29.1792 37.6066 29.1389 38.729 29.1943C39.3704 29.2245 39.7437 29.0154 40.0919 28.4663C43.1058 23.7353 46.1522 19.0271 49.1886 14.3087C49.2713 14.1777 49.339 14.0366 49.4968 13.7444L49.4943 13.7469ZM32.5008 26.7104C34.5076 22.2692 36.4016 18.0748 38.3131 13.8452H26.676C28.6101 18.1176 30.4941 22.2793 32.5008 26.7104ZM38.1979 10.2227C37.6116 9.03363 37.088 7.93277 36.5269 6.85206C35.9356 5.71089 35.5698 4.13894 34.6228 3.5797C33.6558 3.00785 32.1025 3.43862 30.8047 3.43107C30.7045 3.43107 30.5918 3.40336 30.5091 3.43862C30.3413 3.50916 30.1133 3.57718 30.0431 3.71321C28.9608 5.83936 27.9036 7.97811 26.7837 10.2201H38.1979V10.2227ZM26.2952 3.42603C25.4033 3.42603 24.7344 3.48145 24.078 3.41091C23.2688 3.32526 22.7151 3.6326 22.179 4.21956C21.1418 5.34813 20.0395 6.41624 18.9522 7.49947C18.0904 8.35598 17.2135 9.19485 16.3442 10.0388C18.5062 10.268 20.523 10.2756 22.5398 10.2554C22.7051 10.2554 22.9506 10.1295 23.0208 9.9909C24.1006 7.85971 25.1578 5.71844 26.2977 3.42603H26.2952ZM48.5022 10.268C48.5448 10.1748 48.5849 10.0841 48.6275 9.9909C46.5205 7.90506 44.4185 5.81669 42.3016 3.74092C42.1487 3.59229 41.9132 3.45122 41.7128 3.44366C40.7658 3.41343 39.8163 3.43107 38.704 3.43107C39.8263 5.69325 40.866 7.80681 41.9308 9.90525C42.016 10.074 42.2765 10.2504 42.4569 10.2529C44.4712 10.2781 46.4879 10.268 48.5047 10.268H48.5022Z" fill="#334F92"/>
<path d="M58.2534 62.8676C57.9527 64.306 57.7398 66.0417 57.2137 67.6766C55.9284 71.677 54.5255 75.6421 53.0924 79.5921C52.882 80.1741 52.3383 80.7938 51.7897 81.0608C50.8427 81.5218 49.7028 80.688 49.6978 79.6224C49.6978 79.1034 49.8506 78.5694 50.0184 78.0706C51.3813 74.0248 52.7793 69.9917 54.1397 65.946C54.771 64.0667 54.8186 62.1521 54.3952 60.2099C54.2925 59.7413 54.2925 59.1871 54.4428 58.7387C54.7058 57.9527 55.3622 57.6278 56.1865 57.7084C57.0283 57.7915 57.5268 58.3104 57.6771 59.1015C57.8951 60.2451 58.0354 61.404 58.2534 62.8701V62.8676Z" fill="#334F92"/>
<path d="M44.5368 48.0828C47.6383 48.2692 50.5795 49.4406 53.1074 51.6247C53.9542 52.3577 54.0594 53.3402 53.4406 54.1085C52.8318 54.8618 51.8071 55.0028 50.9578 54.295C48.8559 52.5467 46.4583 51.6625 43.7526 51.4962C42.535 51.4206 41.8711 50.7178 41.9162 49.7026C41.9613 48.6924 42.7054 48.0878 43.9104 48.0828C44.0432 48.0828 44.176 48.0828 44.5368 48.0828V48.0828Z" fill="#334F92"/>
</g>
<defs>
<clipPath id="clip0_133_234">
<rect width="65" height="103" fill="white"/>
</clipPath>
</defs>
</svg>
