<svg width="85" height="98" viewBox="0 0 85 98" fill="none" xmlns="http://www.w3.org/2000/svg">
<g clip-path="url(#clip0_1_108)">
<path d="M45.5544 0C47.1607 0.249321 48.7788 0.448299 50.3757 0.757553C60.6976 2.75692 69.1348 7.97348 75.7252 16.2394C80.5087 22.2399 83.41 29.1202 84.5446 36.7389C84.8441 38.7479 84.9573 40.8 84.9715 42.8353C85.0187 50.5858 84.9974 58.3388 84.988 66.0893C84.9809 71.3011 81.3343 75.0049 76.2111 75.0289C75.3997 75.0337 74.5883 75.0289 73.6684 75.0289C73.6684 75.983 73.6684 76.8676 73.6684 77.7498C73.6448 85.9175 67.4389 92.2296 59.4026 92.256C56.6971 92.2632 53.994 92.2728 51.2885 92.244C50.7342 92.2392 50.4747 92.4238 50.2459 92.9345C48.6632 96.4753 45.0425 98.4771 41.3346 97.9041C37.4898 97.3096 34.6192 94.3321 34.1097 90.4125C33.6285 86.7158 35.7726 82.952 39.2141 81.4561C43.4103 79.6317 48.3118 81.5688 50.2601 85.8C50.3945 86.0901 50.7271 86.4929 50.9677 86.4929C54.2676 86.4857 57.5746 86.56 60.8603 86.3227C63.896 86.1045 66.8067 83.4171 67.4436 80.5883C67.1865 80.6003 66.9483 80.5835 66.7218 80.6266C61.7 81.5927 56.808 77.7618 56.7325 72.5453C56.6169 64.5094 56.6452 56.4688 56.7254 48.4306C56.7655 44.5134 59.721 41.126 63.4479 40.3852C67.3846 39.6013 71.2459 41.5599 72.8664 45.2062C73.107 45.748 73.3594 45.959 73.9608 45.9638C75.7087 45.9782 77.4565 46.0789 79.3199 46.1508C79.8058 33.2364 75.6686 22.0697 65.3726 13.9836C52.7958 4.10901 38.9145 2.7737 24.9578 10.4571C11.2109 18.0182 5.35181 30.5466 5.70562 46.1388C7.68697 46.0717 9.58105 46.0261 11.4728 45.9135C11.711 45.8991 12.0176 45.5562 12.1403 45.2925C14.8953 39.3568 22.4858 38.3979 26.5428 43.4922C27.7505 45.0097 28.3638 46.7645 28.3685 48.7015C28.3874 56.548 28.4063 64.3968 28.3662 72.2432C28.3449 76.3258 25.4743 79.8115 21.6366 80.5883C17.6621 81.3938 13.8575 79.4423 12.178 75.6929C11.9445 75.1703 11.6615 75.0385 11.126 75.0121C9.47019 74.9354 7.75774 75.0217 6.17973 74.6046C2.50244 73.6313 0.108302 70.3373 0.0941495 66.4729C0.0658444 58.0199 -0.129932 49.5598 0.153118 41.1164C0.502214 30.6689 4.37764 21.5399 11.3808 13.8517C18.1174 6.44879 26.4697 2.04491 36.2656 0.441107C37.3436 0.263705 38.4333 0.146236 39.516 0C41.528 0 43.5424 0 45.5544 0ZM22.724 60.4963C22.724 56.7685 22.75 53.0407 22.7004 49.3152C22.691 48.6152 22.5117 47.8457 22.1791 47.2392C21.5871 46.158 20.3157 45.7504 19.1599 46.0813C17.8626 46.4528 17.0725 47.5101 17.0607 49.0084C17.0394 52.1297 17.0536 55.251 17.0536 58.3747C17.0536 62.8337 17.0489 67.2951 17.0559 71.7541C17.0583 73.3196 17.7518 74.42 18.9571 74.8443C20.8913 75.5227 22.7004 74.1155 22.7146 71.8692C22.7382 68.0791 22.7217 64.2865 22.7217 60.4963H22.724ZM68.0121 60.4867C68.0121 56.6966 68.0286 52.904 68.005 49.1139C67.9908 46.8316 66.1109 45.4052 64.1649 46.1532C62.9879 46.6063 62.344 47.7019 62.344 49.3033C62.3393 55.8983 62.344 62.4909 62.344 69.0859C62.344 70.1048 62.3062 71.126 62.3581 72.1425C62.469 74.2689 64.4456 75.6018 66.2737 74.7748C67.5309 74.2042 68.0191 73.1254 68.0144 71.7613C68.005 68.0023 68.0121 64.2433 68.0097 60.4844L68.0121 60.4867ZM11.3336 69.2873V51.6862C10.3571 51.6862 9.4466 51.643 8.54084 51.6958C6.91802 51.7893 5.76931 52.9424 5.75044 54.6037C5.70798 58.5257 5.70798 62.4502 5.75044 66.3722C5.76695 68.0335 6.91802 69.1866 8.54084 69.2777C9.4466 69.3305 10.3571 69.2873 11.3336 69.2873ZM73.6849 69.2753C74.7392 69.2753 75.711 69.34 76.6734 69.2609C78.2042 69.1339 79.294 67.9904 79.3128 66.4105C79.3577 62.4549 79.3506 58.4994 79.3128 54.5462C79.3011 53.2948 78.6783 52.228 77.473 51.9331C76.2606 51.6359 74.9633 51.7006 73.6849 51.6047V69.2777V69.2753ZM45.3539 89.3601C45.3327 87.8306 44 86.5048 42.5045 86.5264C40.9973 86.548 39.6905 87.9001 39.7094 89.4176C39.7306 90.9471 41.0633 92.2728 42.5588 92.2536C44.066 92.232 45.3728 90.88 45.3539 89.3625V89.3601Z" fill="#334F93"/>
</g>
<defs>
<clipPath id="clip0_1_108">
<rect width="85" height="98" fill="white"/>
</clipPath>
</defs>
</svg>
