<svg width="97" height="97" viewBox="0 0 97 97" fill="none" xmlns="http://www.w3.org/2000/svg">
<g clip-path="url(#clip0_1_56)">
<path d="M97 94.5331V96.9937H1.33501C0.151847 96.165 -0.202468 95.4439 0.107558 94.5141C0.417583 93.5843 1.12621 93.2048 2.56245 93.2048C3.0876 93.2048 3.60642 93.2048 4.11891 93.2048C4.15054 92.9834 4.17585 92.8885 4.17585 92.7999C4.17585 76.6069 4.18218 60.4139 4.1632 44.2209C4.1632 43.9173 3.93542 43.5188 3.68234 43.3163C1.26541 41.3808 -2.22241e-06 38.9075 0.0126519 35.7891C0.0189789 29.3182 0.0126519 22.8473 0.0126519 16.3765C0.0126519 12.5939 2.35999 10.2472 6.14356 10.2408C13.5905 10.2408 21.0438 10.2408 28.4907 10.2408C30.2749 10.2408 31.2177 10.9113 31.1924 12.1574C31.167 13.3782 30.2496 14.0234 28.535 14.0234C21.1197 14.0234 13.6981 14.0234 6.28276 14.0234C4.6314 14.0234 3.81521 14.7066 3.80255 16.2057C3.77725 19.8048 3.80255 23.404 3.80255 27.0031C3.80255 27.0854 3.86583 27.1676 3.89113 27.2245H93.2164C93.2164 23.6507 93.2164 20.1527 93.2164 16.6485C93.2164 14.7066 92.5394 14.0234 90.6034 14.0234C85.6809 14.0234 80.7521 14.0234 75.8297 14.0234C74.4694 14.0234 73.5899 13.2454 73.6089 12.1068C73.6279 10.9935 74.4757 10.2472 75.7854 10.2472C80.9609 10.2408 86.1365 10.2218 91.3183 10.2535C93.7226 10.2661 95.4435 11.449 96.5002 13.5933C96.69 13.9791 96.8355 14.3903 97.0063 14.7888V37.3262C96.9431 37.4653 96.8545 37.5982 96.8228 37.7437C96.4053 39.9449 95.279 41.735 93.5454 43.1076C93.0203 43.5251 92.8178 43.9173 92.8178 44.5877C92.8368 60.4329 92.8368 76.2717 92.8368 92.1168V93.1731C94.3806 93.3376 96.1205 92.6987 97.0063 94.5331H97ZM14.4067 93.1668V91.9776C14.4067 79.5988 14.4067 67.2263 14.4067 54.8475C14.4067 52.893 15.0014 52.2921 16.9312 52.2921C26.3395 52.2921 35.7478 52.2921 45.1562 52.2921C47.1555 52.2921 47.7376 52.874 47.7376 54.8855C47.7376 67.2643 47.7376 79.6368 47.7376 92.0156V93.1542H88.971V83.3561C88.5281 83.3561 88.1485 83.3561 87.7752 83.3561C77.7974 83.3561 67.8196 83.3561 57.8419 83.3561C55.9121 83.3561 55.3174 82.7489 55.3174 80.8007C55.3174 72.1475 55.3174 63.5007 55.3174 54.8475C55.3174 52.893 55.9058 52.2984 57.8482 52.2984C67.8576 52.2984 77.867 52.2984 87.8764 52.2984C88.2434 52.2984 88.6103 52.2984 88.971 52.2984V45.0432C85.2317 45.4986 82.0239 44.5877 79.6196 41.6401C74.134 46.4917 69.6545 46.4917 63.9791 41.6528C61.9798 44.0374 59.4173 45.157 56.2854 45.1634C53.1219 45.1697 50.5405 44.0121 48.4905 41.5832C46.3963 44.0817 43.8148 45.1697 40.6766 45.1634C37.5447 45.157 34.9949 43.9995 32.9576 41.5832C30.876 44.0691 28.2946 45.1634 25.1627 45.1634C22.0308 45.1634 19.4747 44.0185 17.4184 41.5705C14.9382 44.6573 11.6671 45.4796 8.00372 45.0621V93.1668H14.4067V93.1668ZM43.8907 93.1668V56.1506H18.2409V93.1668H43.8971H43.8907ZM59.1516 79.504H88.971V56.1253H59.1516V79.504ZM3.82154 31.121C3.82154 32.8731 3.76459 34.543 3.84684 36.2003C3.88481 36.934 4.09993 37.7057 4.43526 38.3636C5.66903 40.7799 7.80125 41.4693 10.37 41.3238C12.73 41.1847 14.9508 39.5591 15.3051 37.2503C15.6152 35.2515 15.5329 33.1957 15.6278 31.121H3.82154V31.121ZM30.9329 31.1526H19.3481C19.3481 32.8605 19.2848 34.4987 19.3734 36.1307C19.4177 36.8961 19.6265 37.7057 19.9745 38.3825C21.2146 40.7988 23.3531 41.4756 25.9156 41.3238C28.3895 41.1784 30.6166 39.4136 30.8887 36.9593C31.0974 35.068 30.9329 33.1324 30.9329 31.1526V31.1526ZM46.4659 31.1526H34.881C34.881 32.8541 34.8178 34.4987 34.9063 36.1244C34.9506 36.8897 35.1594 37.6994 35.5074 38.3762C36.7412 40.7925 38.886 41.4693 41.4485 41.3175C43.9287 41.172 46.1495 39.4072 46.4216 36.953C46.6304 35.0617 46.4659 33.1261 46.4659 31.1463V31.1526ZM50.4266 31.121C50.4266 32.8794 50.3696 34.5493 50.4519 36.2129C50.4899 36.9467 50.705 37.7184 51.0403 38.3762C52.2804 40.7925 54.4126 41.4756 56.9751 41.3302C59.2971 41.191 61.5052 39.6223 61.8849 37.3452C62.2202 35.321 62.1379 33.2337 62.2455 31.1273H50.4266V31.121ZM65.9342 31.1273C65.9342 32.7213 65.9089 34.2014 65.9405 35.6816C65.9911 37.9651 66.8896 39.831 69.0471 40.7735C71.2109 41.716 73.4507 41.716 75.4121 40.2548C76.203 39.6666 76.9053 38.7494 77.2596 37.8322C78.0948 35.6689 77.557 33.3728 77.7025 31.1273H65.9342V31.1273ZM81.5051 31.1273C81.5051 32.8984 81.4481 34.5999 81.5304 36.2888C81.562 36.9909 81.7771 37.731 82.0998 38.3572C83.3589 40.8178 85.5291 41.4883 88.1231 41.3175C90.4578 41.1657 92.7039 39.4705 92.9887 37.1681C93.2291 35.1945 93.0393 33.1704 93.0393 31.1273H81.5051V31.1273Z" fill="#334F92"/>
<path d="M53.046 -6.99832e-06C55.9501 0.177104 58.3164 1.60664 59.5945 4.4847C60.8156 7.2489 60.5309 10.0258 58.4556 12.2523C55.4123 15.5288 52.2425 18.7105 48.9524 21.7404C46.1242 24.3528 41.6257 24.0175 38.9177 21.2786C36.2224 18.5461 35.8997 14.112 38.4811 11.3161C41.5371 8.00795 44.7955 4.87688 48.0286 1.73948C49.3194 0.480723 51.0087 0.03162 53.0397 -0.0063324L53.046 -6.99832e-06ZM52.3563 12.8026C53.4826 11.7589 54.6784 10.8101 55.6591 9.67785C56.8359 8.31789 56.6651 6.32539 55.4566 5.00338C54.2924 3.73198 52.2994 3.34613 50.9011 4.37717C49.5788 5.35761 48.4526 6.59738 47.2631 7.70433C49.0599 9.50074 50.724 11.1706 52.35 12.7963L52.3563 12.8026ZM49.4965 15.7186C47.8325 14.055 46.1495 12.3725 44.34 10.5697C43.606 11.3478 42.8025 12.189 42.0053 13.0366C41.7902 13.2644 41.5624 13.4857 41.3726 13.7388C40.1958 15.2632 40.3223 17.3253 41.67 18.6409C42.986 19.9313 45.0802 20.1021 46.4912 18.8687C47.5984 17.9009 48.5348 16.7433 49.4965 15.7249V15.7186Z" fill="#334F92"/>
<path d="M23.505 70.9457C23.505 68.4535 23.505 65.9613 23.505 63.4691C23.505 62.1281 24.3085 61.2172 25.4221 61.2362C26.5103 61.2552 27.2822 62.1407 27.2822 63.4248C27.2886 68.5041 27.2886 73.577 27.2822 78.6563C27.2822 79.9404 26.504 80.8196 25.4158 80.8386C24.3022 80.8576 23.5113 79.9467 23.505 78.6057C23.4987 76.0503 23.505 73.4948 23.505 70.9457V70.9457Z" fill="#334F92"/>
<path d="M39.7782 74.6524C39.7782 75.6708 38.924 76.5184 37.9054 76.5247C36.893 76.531 36.0262 75.6897 36.0072 74.6777C35.9883 73.6213 36.8677 72.7421 37.9243 72.7611C38.943 72.7801 39.7782 73.634 39.7718 74.6524H39.7782Z" fill="#334F92"/>
<path d="M23.505 86.1203C23.5113 85.0956 24.3528 84.2733 25.3841 84.2733C26.4154 84.2733 27.2569 85.0893 27.2759 86.114C27.2886 87.145 26.3585 88.0812 25.3462 88.0432C24.3528 88.0116 23.4923 87.1134 23.505 86.1203V86.1203Z" fill="#334F92"/>
<path d="M75.9689 69.7122C75.9689 71.3758 75.9879 72.9445 75.9689 74.5069C75.9499 75.7846 75.1464 76.6449 74.0391 76.6259C72.9888 76.6069 72.2106 75.8099 72.1916 74.6397C72.1663 73.0394 72.1853 71.4327 72.1853 69.7059C70.6099 69.7059 69.1104 69.7186 67.6045 69.6933C67.1743 69.6869 66.6998 69.649 66.3201 69.4719C65.5356 69.105 65.156 68.4219 65.2762 67.5426C65.4027 66.6318 66.0797 65.9676 66.9845 65.936C68.3385 65.8854 69.6925 65.9107 71.0528 65.9043C71.3881 65.9043 71.7298 65.9043 72.1853 65.9043C72.1853 64.1775 72.1537 62.5456 72.198 60.9199C72.2359 59.3829 73.7038 58.5099 74.9819 59.2247C75.7158 59.6422 75.9815 60.319 75.9815 61.1287C75.9815 62.6404 76.0005 64.1522 76.0068 65.664C76.0068 65.6956 76.0258 65.7209 76.0764 65.898C77.2469 65.898 78.4617 65.898 79.6765 65.898C80.0878 65.898 80.4991 65.8854 80.904 65.9043C82.0745 65.9549 82.8654 66.7013 82.8844 67.7577C82.9033 68.8457 82.0808 69.6553 80.866 69.6806C79.4804 69.7122 78.0884 69.6869 76.7028 69.6869C76.494 69.6869 76.2789 69.6869 75.9752 69.6869L75.9689 69.7122Z" fill="#334F92"/>
</g>
<defs>
<clipPath id="clip0_1_56">
<rect width="97" height="97" fill="white"/>
</clipPath>
</defs>
</svg>
