<svg width="96" height="96" viewBox="0 0 96 96" fill="none" xmlns="http://www.w3.org/2000/svg">
<g clip-path="url(#clip0_362_393)">
<path d="M96 4.14246C95.8106 5.61843 95.625 7.0944 95.4337 8.57037C94.1193 18.7294 91.6425 28.5185 86.2725 37.3875C84.6637 40.0446 82.7437 42.4557 80.5443 44.649C77.3606 47.8263 74.1956 51.0242 70.9893 54.179C70.4587 54.701 70.2187 55.2681 70.1418 55.9685C69.5718 61.2396 69.0131 66.5125 68.3887 71.7779C68.3175 72.3788 67.995 73.0624 67.5712 73.4905C62.4318 78.6883 57.2531 83.8467 52.0818 89.0126C51.5193 89.5759 50.8856 89.897 50.0587 89.6435C49.2075 89.3825 48.8025 88.7816 48.6806 87.9366C48.15 84.2655 47.6268 80.5924 47.0681 76.925C47.0137 76.5664 46.7981 76.1852 46.5487 75.9129C45.6675 74.9439 44.7393 74.0163 43.7193 72.961C43.4812 73.3234 43.3143 73.5637 43.1643 73.8116C41.8162 76.0575 40.4775 78.3109 39.12 80.553C38.2462 81.9952 36.9131 82.1698 35.7243 80.9811C28.8037 74.0745 21.8887 67.1622 14.9812 60.2425C13.8 59.0594 13.9631 57.7806 15.39 56.9131C17.8687 55.4071 20.3606 53.9254 22.9706 52.3593C21.8456 51.2139 20.8856 49.9407 19.6387 49.0807C18.9018 48.5718 17.715 48.7051 16.7287 48.5643C13.92 48.1643 11.1093 47.7756 8.3006 47.3775C7.42122 47.2535 6.66935 46.9418 6.3656 46.0029C6.06185 45.0621 6.5006 44.3936 7.13435 43.7608C12.1987 38.7094 17.2781 33.6712 22.2937 28.5711C23.3062 27.5401 24.5325 27.5683 25.7418 27.4294C30.5137 26.8773 35.2912 26.374 40.0687 25.867C40.7793 25.7919 41.3325 25.5271 41.85 24.9994C44.5856 22.2128 47.43 19.5312 50.1075 16.692C55.4606 11.0097 61.9968 7.26528 69.2906 4.72834C75.8531 2.4449 82.5993 0.978324 89.5275 0.379298C90.8025 0.268506 92.0793 0.172737 93.3487 0.0243889C94.5318 -0.112692 95.4225 0.268506 95.9981 1.32948V4.14058L96 4.14246ZM50.5462 69.1903C50.2425 68.9255 49.9706 68.7133 49.7287 68.4711C45.33 64.0788 40.9331 59.6847 36.5418 55.285C36.2568 54.9996 35.8593 54.7123 35.775 54.363C35.6325 53.7696 35.4712 52.9884 35.7412 52.5396C36.0337 52.0533 36.8025 51.6195 37.3743 51.6063C37.9237 51.5932 38.595 52.0364 39.03 52.4645C43.5412 56.9206 48.015 61.4142 52.5 65.8966C52.7325 66.1294 52.9818 66.3454 53.3493 66.6853C53.6118 66.3529 53.8012 66.0581 54.0412 65.8158C61.6575 58.1919 69.2193 50.5116 76.9218 42.9759C81.9993 38.009 85.3893 32.0788 87.7125 25.4595C87.8062 25.1891 87.7237 24.7028 87.5306 24.5093C82.2056 19.1444 76.86 13.8001 71.4956 8.47272C71.3137 8.29245 70.8712 8.19292 70.6293 8.27743C64.2562 10.5102 58.4493 13.6574 53.6306 18.5116C44.0793 28.1335 34.4662 37.6917 24.8812 47.278C24.6243 47.5333 24.3806 47.8019 24.2118 47.9784C32.1843 55.9497 40.0875 63.8497 47.985 71.7479C48.7612 70.9723 49.5937 70.1386 50.5443 69.1865L50.5462 69.1903ZM40.815 70.3977C35.7112 65.2938 30.6825 60.265 25.6068 55.1911C23.5387 56.4342 21.39 57.728 19.3556 58.9524C25.2862 64.8807 31.1493 70.7432 37.0556 76.649C38.2893 74.5965 39.57 72.4671 40.815 70.3977ZM12.2362 44.065C12.6881 44.1476 13.0162 44.2209 13.3481 44.2678C15.7237 44.6077 18.1068 44.9081 20.475 45.3006C21.1425 45.4114 21.5643 45.2856 22.035 44.8124C26.6793 40.1366 31.3481 35.4833 36.0075 30.8226C36.2212 30.6085 36.4181 30.3775 36.7425 30.0264C33.0131 30.4433 29.4637 30.8564 25.9087 31.2226C25.1775 31.2977 24.6562 31.5831 24.1443 32.0995C20.4525 35.827 16.7306 39.5282 13.02 43.2388C12.7818 43.4754 12.5587 43.727 12.2362 44.0669V44.065ZM51.9225 83.7904C52.2806 83.4524 52.53 83.227 52.7662 82.9904C55.9912 79.7662 59.1618 76.4856 62.4637 73.3403C63.9431 71.93 64.9406 70.5085 65.0306 68.3434C65.1562 65.3689 65.6362 62.4076 65.9775 59.3373C65.7918 59.465 65.6812 59.5176 65.5987 59.5984C60.7143 64.4769 55.8281 69.3518 50.9681 74.2548C50.7412 74.4839 50.67 74.9796 50.7037 75.3326C50.82 76.51 51.015 77.6799 51.1856 78.8517C51.42 80.4497 51.66 82.0459 51.9206 83.7922L51.9225 83.7904ZM75.5362 6.75075C80.1225 11.3364 84.7143 15.9258 89.2631 20.472C90.6993 15.1765 91.665 9.65387 92.0962 3.919C86.3475 4.35841 80.82 5.32549 75.5362 6.75075Z" fill="#334F93"/>
<path d="M0 93.5626C0.485625 92.9974 0.935625 92.3984 1.45875 91.8726C7.49625 85.8203 13.5356 79.7681 19.6125 73.7534C20.1 73.2708 20.8556 72.8483 21.5175 72.7995C22.8581 72.6981 23.7112 74.3018 23.0325 75.4716C22.8319 75.8153 22.5506 76.1233 22.2675 76.4068C16.0725 82.6111 9.87187 88.8098 3.66562 95.0029C3.29437 95.3728 2.85 95.6676 2.43937 95.9981H0C0 95.185 0 94.3738 0 93.5607V93.5626Z" fill="#334F93"/>
<path d="M4.52811 82.996C3.92249 82.5472 3.23624 82.2787 2.98686 81.7886C2.73561 81.291 2.83686 80.5605 2.94186 79.9596C2.99811 79.6423 3.36936 79.3625 3.63186 79.0996C7.20186 75.5204 10.7625 71.9319 14.3737 68.396C14.8444 67.9359 15.5756 67.5284 16.2094 67.4927C17.565 67.4157 18.3994 68.9762 17.7337 70.1705C17.5556 70.4916 17.2894 70.7733 17.0269 71.0362C13.4344 74.6379 9.84374 78.2395 6.22874 81.8168C5.78811 82.2524 5.20124 82.5379 4.52811 82.9979V82.996Z" fill="#334F93"/>
<path d="M13.1493 91.4163C13.4137 90.9449 13.59 90.3854 13.9556 90.0135C17.685 86.241 21.4387 82.4929 25.2018 78.7541C26.1431 77.819 27.2268 77.7814 28.0256 78.5738C28.7943 79.3362 28.7606 80.5005 27.8625 81.4056C24.1237 85.1688 20.3681 88.915 16.6087 92.6575C15.9937 93.2697 15.2606 93.5814 14.3981 93.1814C13.6912 92.8528 13.2881 92.2989 13.1475 91.4163H13.1493Z" fill="#334F93"/>
<path d="M60.99 23.8034C67.2506 23.8127 72.225 28.7984 72.2118 35.0534C72.1987 41.2821 67.1681 46.311 60.96 46.3053C54.78 46.2978 49.6893 41.1939 49.7062 35.0234C49.7231 28.8059 54.7631 23.794 60.99 23.8034ZM61.0087 27.5684C56.9118 27.5496 53.4731 30.9766 53.4993 35.0496C53.5256 39.1226 56.8443 42.4502 60.9431 42.5102C64.9968 42.5703 68.4525 39.1226 68.4468 35.0234C68.4412 30.9466 65.0887 27.5853 61.0087 27.5665V27.5684Z" fill="#334F93"/>
<path d="M30.1593 48.0892C30.1593 47.0996 30.9862 46.2339 31.9631 46.2001C32.9381 46.1663 33.8962 47.0977 33.9 48.0817C33.9037 49.0957 33.0037 49.9652 31.9706 49.9464C30.9618 49.9276 30.1575 49.1051 30.1575 48.0892H30.1593Z" fill="#334F93"/>
</g>
<defs>
<clipPath id="clip0_362_393">
<rect width="96" height="96" fill="white"/>
</clipPath>
</defs>
</svg>
