<svg width="98" height="98" viewBox="0 0 98 98" fill="none" xmlns="http://www.w3.org/2000/svg">
<g clip-path="url(#clip0_1_117)">
<path d="M93.5372 93.4683C94.3524 93.4683 95.009 93.4404 95.6657 93.4739C97.0012 93.5408 97.9666 94.4688 98 95.6812C98.0334 96.9186 97.0373 97.9052 95.6601 97.9916C95.418 98.0056 95.1732 97.9972 94.9312 97.9972C64.3262 97.9972 33.7211 97.9972 3.11615 97.9972C2.80453 97.9972 2.48735 98.0139 2.17852 97.9805C0.932063 97.8523 0.00278398 96.874 0.00834853 95.7202C0.0166953 94.5524 0.937628 93.5826 2.198 93.4878C2.91304 93.4349 3.63921 93.4794 4.47111 93.4794C4.47111 92.9081 4.47111 92.4622 4.47111 92.019C4.47111 81.6931 4.47111 71.3672 4.47111 61.0385C4.47111 58.5469 5.13329 57.8864 7.61786 57.8864C14.4678 57.8864 21.3206 57.8864 28.1705 57.8864C30.5076 57.8864 31.2366 58.6138 31.2366 60.9326C31.2366 71.3282 31.2366 81.7238 31.2366 92.1222V93.407H35.652V92.1389C35.652 77.2562 35.652 62.3763 35.652 47.4936C35.652 45.2696 36.3587 44.5366 38.5512 44.5338C45.5069 44.5282 52.4625 44.5282 59.4182 44.5338C61.644 44.5338 62.3563 45.2528 62.3563 47.4574C62.3563 62.3401 62.3563 77.22 62.3563 92.1027C62.3563 92.5123 62.3563 92.9248 62.3563 93.4014H66.7718V92.0553C66.7718 72.8276 66.7718 53.6 66.7718 34.3723C66.7718 31.8807 67.4506 31.184 69.9018 31.184C76.7518 31.184 83.6045 31.184 90.4545 31.184C92.8611 31.184 93.5372 31.8668 93.5372 34.2971C93.5372 53.5247 93.5372 72.7524 93.5372 91.98C93.5372 92.4259 93.5372 92.8719 93.5372 93.4739V93.4683ZM71.3709 35.6822V93.393H89.0077V35.6822H71.3709ZM57.8045 93.4181V49.0488H40.1816V93.4181H57.8045ZM8.99787 62.3874V93.3958H26.6347V62.3874H8.99787V62.3874Z" fill="#334F93"/>
<path d="M89.7701 4.53458C85.772 4.53458 82.0549 4.54016 78.3406 4.5318C76.8854 4.52901 75.9116 3.8016 75.7364 2.63662C75.5138 1.1595 76.5655 0.0223984 78.2321 0.0112504C81.5346 -0.00825878 84.84 0.00567633 88.1425 0.00567633C90.5408 0.00567633 92.9419 -0.00547176 95.3403 0.00846335C97.3212 0.0223985 98.2978 1.22082 97.8276 3.12993C96.4226 8.85168 94.9925 14.5679 93.5513 20.2785C93.1645 21.8085 92.0321 22.5722 90.7467 22.2461C89.4585 21.92 88.8409 20.6965 89.2137 19.1859C89.9621 16.1592 90.7189 13.1325 91.4673 10.1058C91.5564 9.75189 91.6204 9.38957 91.7289 8.88512C89.4697 10.7134 87.3635 12.4664 85.2044 14.1526C69.6877 26.2761 52.5934 35.4622 33.9132 41.7023C24.3172 44.9074 14.5125 47.2178 4.51297 48.7312C3.86191 48.8287 3.20808 48.9402 2.55146 48.9792C1.1965 49.06 0.203225 48.2741 0.0223777 47.0283C-0.141776 45.9051 0.651171 44.8154 1.9338 44.5841C4.69938 44.0852 7.48443 43.6978 10.2472 43.185C26.8073 40.1193 42.5383 34.6483 57.4401 26.8001C68.8335 20.7996 79.3895 13.5785 89.1107 5.13658C89.261 5.00559 89.4057 4.86624 89.7701 4.52901V4.53458Z" fill="#334F93"/>
</g>
<defs>
<clipPath id="clip0_1_117">
<rect width="98" height="98" fill="white"/>
</clipPath>
</defs>
</svg>
