<svg width="99" height="100" viewBox="0 0 99 100" fill="none" xmlns="http://www.w3.org/2000/svg">
<g clip-path="url(#clip0_95_2)">
<path d="M20.7173 49.972C20.737 34.0322 33.561 21.1368 49.4163 21.1236C65.4685 21.1072 78.3516 34.0618 78.2959 50.1662C78.2434 66.0632 65.3078 78.9553 49.4721 78.8928C33.4921 78.8303 20.7009 65.9645 20.7173 49.972V49.972ZM49.5509 26.3634C36.3758 26.4095 25.9171 36.9713 25.9401 50.2123C25.9597 63.157 36.6678 73.7188 49.7116 73.6563C62.5422 73.5971 73.1059 62.9266 73.0829 50.0477C73.06 36.968 62.4832 26.3173 49.5509 26.3634V26.3634Z" fill="#334F93"/>
<path d="M12.5321 74.1599C14.2413 74.5746 15.9407 75.0288 17.6597 75.3941C19.382 75.7595 20.7566 74.9366 21.0749 73.4424C21.3931 71.9514 20.4679 70.648 18.7456 70.2728C15.1074 69.4763 11.4659 68.6996 7.82106 67.9459C5.98062 67.5641 4.7799 68.3343 4.37966 70.1642C3.58903 73.7715 2.82464 77.3854 2.07665 81.0025C1.69609 82.8522 2.48673 84.1918 4.07456 84.4946C5.57382 84.7777 6.7975 83.8495 7.19117 82.0919C7.48315 80.7754 7.74232 79.4523 8.07695 77.833C9.22189 79.3042 10.1766 80.5845 11.187 81.8221C24.2407 97.8146 46.3522 104.229 65.7441 97.13C84.7194 90.182 95.7325 76.3881 98.8688 56.3275C98.9442 55.8437 99.0098 55.3467 99.0066 54.8596C99 53.497 98.0191 52.4175 96.6937 52.2661C95.4175 52.1212 94.2529 52.8947 93.9084 54.1717C93.7707 54.6819 93.7411 55.2249 93.6591 55.7516C90.8738 73.2943 81.3567 85.7223 64.7796 91.8441C48.4354 97.8771 33.2756 94.6746 19.9988 83.3657C17.3513 81.1111 15.3009 78.1522 12.9881 75.5093C12.7322 75.2164 12.555 74.8478 12.3418 74.5153C12.4074 74.3969 12.473 74.2817 12.5386 74.1632L12.5321 74.1599Z" fill="#334F93"/>
<path d="M86.4744 25.8796C84.8571 25.4714 83.2463 25.0304 81.6158 24.6651C79.6999 24.2372 78.2761 24.9843 77.9316 26.5247C77.5806 28.0815 78.5648 29.3684 80.461 29.7798C83.9812 30.5401 87.5046 31.2905 91.028 32.0277C93.0817 32.4556 94.2233 31.7085 94.6695 29.635C95.424 26.1462 96.1622 22.6508 96.8938 19.1554C97.3038 17.1938 96.5821 15.8509 94.9647 15.5152C93.4097 15.1927 92.1729 16.1735 91.7661 18.1154C91.5004 19.3891 91.297 20.676 91.0214 22.2163C89.4369 20.2481 88.1476 18.5136 86.7205 16.8976C73.2961 1.6917 52.0047 -4.04835 33.0623 2.96215C14.0017 10.0154 3.0739 23.9673 0.0688322 44.1431C-0.111603 45.3543 0.00321928 46.4536 1.03662 47.2534C2.69991 48.5436 4.77656 47.4114 5.25553 45.1634C6.04617 41.4409 6.64652 37.6197 7.96206 34.0782C19.1228 4.0022 58.4085 -4.44331 80.8711 18.3622C83.0101 20.5312 84.8669 22.9799 86.855 25.297C86.7303 25.4912 86.6024 25.6854 86.4777 25.8796H86.4744Z" fill="#334F93"/>
<path d="M52.2082 36.3394C53.9436 37.1984 55.5971 37.8962 57.1226 38.8079C58.7203 39.7624 59.0975 41.3718 58.2413 42.6752C57.3588 44.018 55.8563 44.2221 54.2684 43.1755C52.4247 41.9643 50.4858 41.2369 48.2484 41.8293C48.0516 41.882 47.8482 41.9248 47.6645 42.007C46.7131 42.4349 45.7191 42.9352 45.6272 44.0904C45.5353 45.2622 46.5294 45.7756 47.425 46.1804C48.9111 46.8551 50.4497 47.4114 51.9457 48.0696C53.0644 48.5633 54.2061 49.0439 55.2297 49.7021C59.5437 52.4767 59.8783 57.8448 55.9284 61.1197C55.0656 61.8372 54.006 62.3572 52.966 62.8016C52.3164 63.078 52.0999 63.3907 52.136 64.0589C52.1721 64.75 52.1721 65.461 52.0638 66.1423C51.8539 67.4785 50.8041 68.3474 49.5148 68.3507C48.2255 68.3507 47.2052 67.4818 46.9395 66.1554C46.9231 66.0764 46.8837 65.9876 46.9001 65.9152C47.4217 63.6902 46.1751 62.8674 44.2821 62.3474C43.3668 62.0972 42.527 61.4818 41.7232 60.9321C40.3322 59.9809 39.9681 58.4373 40.762 57.2063C41.5953 55.9128 43.1831 55.6298 44.6266 56.5974C46.2735 57.7033 48.0221 58.4834 50.0265 58.1279C50.9156 57.9699 51.844 57.598 52.5756 57.0681C53.796 56.186 53.7074 55.011 52.4641 54.1619C51.8965 53.7735 51.2502 53.4937 50.6138 53.2173C48.6651 52.3714 46.6573 51.6572 44.7677 50.6994C41.9332 49.2644 40.119 47.0362 40.4011 43.656C40.6669 40.447 42.6648 38.4327 45.473 37.2906C46.6606 36.8068 47.028 36.2275 46.887 35.0591C46.8279 34.5851 46.9001 34.0717 47.0149 33.601C47.3069 32.4096 48.3305 31.6493 49.5312 31.6592C50.7319 31.6723 51.7784 32.4392 52.0015 33.6471C52.1754 34.6016 52.159 35.5923 52.2082 36.3394V36.3394Z" fill="#334F93"/>
</g>
<defs>
<clipPath id="clip0_95_2">
<rect width="99" height="100" fill="white"/>
</clipPath>
</defs>
</svg>
